{"glyphs":{"0":{"ha":908,"x_min":0,"x_max":0,"o":"m 456 -22 b 876 479 743 -22 876 207 b 456 982 876 751 743 982 b 33 479 168 982 33 751 b 456 -22 33 207 168 -22 z m 456 168 b 269 479 315 168 269 289 b 456 792 269 669 315 792 b 640 479 596 792 640 669 b 456 168 640 289 596 168 z "},"1":{"ha":564,"x_min":0,"x_max":0,"o":"m 281 960 b 36 760 281 856 218 760 l 36 593 b 239 649 104 593 185 593 l 239 0 l 475 0 l 475 960 z "},"2":{"ha":807,"x_min":0,"x_max":0,"o":"m 267 610 b 417 792 267 742 326 792 b 533 674 492 792 533 747 b 199 329 533 547 371 472 b 31 0 114 258 31 160 l 769 0 l 769 190 l 363 190 l 363 193 b 769 690 486 315 769 438 b 424 982 769 874 631 982 b 44 610 164 982 44 835 z "},"3":{"ha":831,"x_min":0,"x_max":0,"o":"m 269 665 b 411 792 269 757 338 792 b 536 679 489 792 536 761 b 382 574 536 607 485 574 l 339 574 l 339 411 l 388 411 b 564 283 499 411 564 376 b 417 168 564 211 517 168 b 242 339 293 168 242 228 l 19 339 b 433 -22 19 108 163 -22 b 800 269 646 -22 800 81 b 633 506 800 388 751 468 l 633 508 b 772 718 711 549 772 614 b 429 982 772 888 608 982 b 47 665 183 982 47 849 z "},"4":{"ha":865,"x_min":0,"x_max":0,"o":"m 700 0 l 700 203 l 842 203 l 842 393 l 700 393 l 700 960 l 464 960 l 29 435 l 29 203 l 464 203 l 464 0 z m 464 703 l 464 393 l 203 393 z "},"5":{"ha":838,"x_min":0,"x_max":0,"o":"m 488 651 b 282 583 400 651 335 625 l 282 586 l 318 769 l 764 769 l 764 960 l 157 960 l 46 419 l 268 419 b 414 489 307 468 363 489 b 569 328 515 489 569 429 b 418 168 569 222 507 168 b 254 297 318 168 261 228 l 18 297 b 432 -22 25 108 164 -22 b 806 325 644 -22 806 94 b 488 651 806 531 678 651 z "},"6":{"ha":858,"x_min":0,"x_max":0,"o":"m 271 567 l 271 569 b 442 806 274 707 322 806 b 567 717 529 806 560 750 l 803 717 b 446 982 772 871 632 982 b 35 467 200 982 35 814 b 454 -22 35 217 138 -22 b 831 329 685 -22 831 117 b 500 654 831 513 699 654 b 271 567 390 654 322 615 z m 440 154 b 271 317 336 154 271 224 b 440 478 271 408 336 478 b 608 317 543 478 608 408 b 440 154 608 224 543 154 z "},"7":{"ha":757,"x_min":0,"x_max":0,"o":"m 24 960 l 24 769 l 478 769 l 478 767 b 176 0 307 621 176 307 l 426 0 b 728 783 426 296 510 607 l 728 960 z "},"8":{"ha":846,"x_min":0,"x_max":0,"o":"m 26 275 b 424 -22 26 78 204 -22 b 821 275 643 -22 821 78 b 640 517 821 404 731 476 l 640 519 b 779 722 707 556 779 614 b 424 982 779 888 621 982 b 68 722 226 982 68 888 b 207 519 68 614 139 556 l 207 517 b 26 275 115 476 26 404 z m 424 582 b 276 701 326 582 276 636 b 424 819 276 764 326 819 b 571 701 521 819 571 764 b 424 582 571 636 521 582 z m 424 154 b 263 297 322 154 263 219 b 424 438 263 372 322 438 b 585 297 525 438 585 372 b 424 154 585 219 525 154 z "},"9":{"ha":858,"x_min":0,"x_max":0,"o":"m 589 393 l 589 390 b 418 154 586 253 538 154 b 293 243 331 154 300 210 l 57 243 b 414 -22 88 89 228 -22 b 825 493 660 -22 825 146 b 406 982 825 743 722 982 b 29 631 175 982 29 843 b 360 306 29 447 161 306 b 589 393 469 306 538 344 z m 419 806 b 589 643 524 806 589 736 b 419 482 589 551 524 482 b 251 643 317 482 251 551 b 419 806 251 736 317 806 z "},"A":{"ha":968,"x_min":0,"x_max":0,"o":"m 653 207 l 717 0 l 967 0 l 608 993 l 358 993 l -1 0 l 249 0 l 313 207 z m 369 397 l 482 764 l 485 764 l 597 397 z "},"Á":{"ha":968,"x_min":0,"x_max":0,"o":"m 457 1282 l 397 1088 l 564 1088 l 707 1282 z m 653 207 l 717 0 l 967 0 l 608 993 l 358 993 l -1 0 l 249 0 l 313 207 z m 369 397 l 482 764 l 485 764 l 597 397 z "},"Ă":{"ha":968,"x_min":0,"x_max":0,"o":"m 483 1079 b 706 1282 613 1079 700 1163 l 578 1282 b 483 1215 574 1242 543 1215 b 389 1282 424 1215 393 1242 l 261 1282 b 483 1079 265 1158 357 1079 z m 653 207 l 717 0 l 967 0 l 608 993 l 358 993 l -1 0 l 249 0 l 313 207 z m 369 397 l 482 764 l 485 764 l 597 397 z "},"Â":{"ha":968,"x_min":0,"x_max":0,"o":"m 226 1088 l 419 1088 l 482 1183 l 485 1183 l 547 1088 l 740 1088 l 592 1282 l 375 1282 z m 653 207 l 717 0 l 967 0 l 608 993 l 358 993 l -1 0 l 249 0 l 313 207 z m 369 397 l 482 764 l 485 764 l 597 397 z "},"Ä":{"ha":968,"x_min":0,"x_max":0,"o":"m 228 1185 b 335 1079 228 1128 265 1079 b 440 1185 403 1079 440 1128 b 335 1290 440 1242 403 1290 b 228 1185 267 1290 228 1242 z m 526 1185 b 633 1079 526 1128 564 1079 b 739 1185 701 1079 739 1128 b 633 1290 739 1242 701 1290 b 526 1185 565 1290 526 1242 z m 653 207 l 717 0 l 967 0 l 608 993 l 358 993 l -1 0 l 249 0 l 313 207 z m 369 397 l 482 764 l 485 764 l 597 397 z "},"À":{"ha":968,"x_min":0,"x_max":0,"o":"m 508 1282 l 258 1282 l 401 1088 l 568 1088 z m 653 207 l 717 0 l 967 0 l 608 993 l 358 993 l -1 0 l 249 0 l 313 207 z m 369 397 l 482 764 l 485 764 l 597 397 z "},"Ā":{"ha":968,"x_min":0,"x_max":0,"o":"m 285 1254 l 285 1115 l 682 1115 l 682 1254 z m 653 207 l 717 0 l 967 0 l 608 993 l 358 993 l -1 0 l 249 0 l 313 207 z m 369 397 l 482 764 l 485 764 l 597 397 z "},"Ą":{"ha":968,"x_min":0,"x_max":0,"o":"m 917 -115 b 874 -85 889 -115 874 -106 b 940 0 874 -56 904 -31 l 967 0 l 608 993 l 358 993 l -1 0 l 249 0 l 313 207 l 653 207 l 717 0 l 800 0 b 703 -129 756 -21 703 -64 b 861 -246 703 -204 757 -246 b 974 -231 900 -246 942 -239 l 974 -106 b 917 -115 954 -111 935 -115 z m 369 397 l 482 764 l 485 764 l 597 397 z "},"Å":{"ha":968,"x_min":0,"x_max":0,"o":"m 483 1072 b 625 1211 561 1072 625 1125 b 483 1350 625 1296 561 1350 b 342 1211 407 1350 342 1296 b 483 1072 342 1125 407 1072 z m 483 1149 b 426 1211 450 1149 426 1171 b 483 1274 426 1251 450 1274 b 542 1211 518 1274 542 1251 b 483 1149 542 1171 518 1149 z m 653 207 l 717 0 l 967 0 l 608 993 l 358 993 l -1 0 l 249 0 l 313 207 z m 369 397 l 482 764 l 485 764 l 597 397 z "},"Ã":{"ha":968,"x_min":0,"x_max":0,"o":"m 253 1107 l 368 1107 b 414 1158 368 1132 376 1158 b 592 1107 467 1158 528 1107 b 714 1294 671 1107 714 1158 l 599 1294 b 553 1242 599 1268 590 1242 b 375 1294 500 1242 439 1294 b 253 1107 296 1294 253 1242 z m 653 207 l 717 0 l 967 0 l 608 993 l 358 993 l -1 0 l 249 0 l 313 207 z m 369 397 l 482 764 l 485 764 l 597 397 z "},"Æ":{"ha":1400,"x_min":0,"x_max":0,"o":"m 849 204 l 849 408 l 1282 408 l 1282 613 l 849 613 l 849 789 l 1351 789 l 1351 993 l 374 993 l -1 -3 l 249 -3 l 313 204 l 599 204 l 599 0 l 1360 0 l 1360 204 z m 369 394 l 497 789 l 599 789 l 599 394 z "},"B":{"ha":932,"x_min":0,"x_max":0,"o":"m 865 743 b 550 993 865 913 757 993 l 68 993 l 68 0 l 564 0 b 904 293 769 0 904 82 b 711 529 904 442 815 511 l 711 532 b 865 743 793 560 865 621 z m 318 592 l 318 789 l 490 789 b 615 690 560 789 615 772 b 490 592 615 608 560 592 z m 318 439 l 497 439 b 654 322 601 439 654 415 b 497 204 654 229 601 204 l 318 204 z "},"C":{"ha":968,"x_min":0,"x_max":0,"o":"m 699 624 l 949 624 b 510 1015 925 854 781 1015 b 28 497 196 1015 28 796 b 510 -22 28 197 196 -22 b 949 372 782 -22 926 139 l 699 372 b 499 182 682 261 632 182 b 278 497 333 182 278 310 b 499 811 278 683 333 811 b 699 624 631 811 681 732 z "},"Ć":{"ha":968,"x_min":0,"x_max":0,"o":"m 490 1282 l 431 1088 l 597 1088 l 740 1282 z m 699 624 l 949 624 b 510 1015 925 854 781 1015 b 28 497 196 1015 28 796 b 510 -22 28 197 196 -22 b 949 372 782 -22 926 139 l 699 372 b 499 182 682 261 632 182 b 278 497 333 182 278 310 b 499 811 278 683 333 811 b 699 624 631 811 681 732 z "},"Č":{"ha":968,"x_min":0,"x_max":0,"o":"m 260 1282 l 408 1088 l 625 1088 l 774 1282 l 581 1282 l 518 1186 l 515 1186 l 453 1282 z m 699 624 l 949 624 b 510 1015 925 854 781 1015 b 28 497 196 1015 28 796 b 510 -22 28 197 196 -22 b 949 372 782 -22 926 139 l 699 372 b 499 182 682 261 632 182 b 278 497 333 182 278 310 b 499 811 278 683 333 811 b 699 624 631 811 681 732 z "},"Ç":{"ha":968,"x_min":0,"x_max":0,"o":"m 499 182 b 278 497 333 182 278 310 b 499 811 278 683 333 811 b 699 624 631 811 681 732 l 949 624 b 510 1015 925 854 781 1015 b 28 497 196 1015 28 796 b 472 -21 28 210 182 -4 l 399 -106 l 422 -139 b 471 -129 438 -133 453 -129 b 524 -167 500 -129 524 -140 b 463 -207 524 -196 488 -207 b 367 -186 429 -207 393 -199 l 325 -235 b 481 -275 364 -258 415 -275 b 663 -168 579 -275 663 -235 b 507 -75 663 -96 586 -67 l 507 -72 l 554 -21 b 949 372 797 -4 928 151 l 699 372 b 499 182 682 261 632 182 z "},"Ċ":{"ha":968,"x_min":0,"x_max":0,"o":"m 410 1185 b 517 1079 410 1128 447 1079 b 622 1185 585 1079 622 1128 b 517 1290 622 1242 585 1290 b 410 1185 449 1290 410 1242 z m 699 624 l 949 624 b 510 1015 925 854 781 1015 b 28 497 196 1015 28 796 b 510 -22 28 197 196 -22 b 949 372 782 -22 926 139 l 699 372 b 499 182 682 261 632 182 b 278 497 333 182 278 310 b 499 811 278 683 333 811 b 699 624 631 811 681 732 z "},"D":{"ha":979,"x_min":0,"x_max":0,"o":"m 68 0 l 522 0 b 951 496 799 0 951 176 b 508 993 951 815 785 993 l 68 993 z m 318 789 l 483 789 b 701 496 639 789 701 676 b 483 204 701 315 639 204 l 318 204 z "},"Ð":{"ha":992,"x_min":0,"x_max":0,"o":"m 521 993 l 81 993 l 81 576 l 4 576 l 4 451 l 81 451 l 81 0 l 535 0 b 964 496 811 0 964 176 b 521 993 964 815 797 993 z m 496 204 l 331 204 l 331 451 l 529 451 l 529 576 l 331 576 l 331 789 l 496 789 b 714 496 651 789 714 676 b 496 204 714 315 651 204 z "},"Ď":{"ha":979,"x_min":0,"x_max":0,"o":"m 183 1282 l 332 1088 l 549 1088 l 697 1282 l 504 1282 l 442 1186 l 439 1186 l 376 1282 z m 68 0 l 522 0 b 951 496 799 0 951 176 b 508 993 951 815 785 993 l 68 993 z m 318 789 l 483 789 b 701 496 639 789 701 676 b 483 204 701 315 639 204 l 318 204 z "},"Đ":{"ha":992,"x_min":0,"x_max":0,"o":"m 521 993 l 81 993 l 81 576 l 4 576 l 4 451 l 81 451 l 81 0 l 535 0 b 964 496 811 0 964 176 b 521 993 964 815 797 993 z m 496 204 l 331 204 l 331 451 l 529 451 l 529 576 l 331 576 l 331 789 l 496 789 b 714 496 651 789 714 676 b 496 204 714 315 651 204 z "},"E":{"ha":872,"x_min":0,"x_max":0,"o":"m 318 613 l 318 789 l 821 789 l 821 993 l 68 993 l 68 0 l 829 0 l 829 204 l 318 204 l 318 408 l 751 408 l 751 613 z "},"É":{"ha":872,"x_min":0,"x_max":0,"o":"m 422 1282 l 363 1088 l 529 1088 l 672 1282 z m 318 613 l 318 789 l 821 789 l 821 993 l 68 993 l 68 0 l 829 0 l 829 204 l 318 204 l 318 408 l 751 408 l 751 613 z "},"Ě":{"ha":872,"x_min":0,"x_max":0,"o":"m 192 1282 l 340 1088 l 557 1088 l 706 1282 l 513 1282 l 450 1186 l 447 1186 l 385 1282 z m 318 613 l 318 789 l 821 789 l 821 993 l 68 993 l 68 0 l 829 0 l 829 204 l 318 204 l 318 408 l 751 408 l 751 613 z "},"Ê":{"ha":872,"x_min":0,"x_max":0,"o":"m 192 1088 l 385 1088 l 447 1183 l 450 1183 l 513 1088 l 706 1088 l 557 1282 l 340 1282 z m 318 613 l 318 789 l 821 789 l 821 993 l 68 993 l 68 0 l 829 0 l 829 204 l 318 204 l 318 408 l 751 408 l 751 613 z "},"Ë":{"ha":872,"x_min":0,"x_max":0,"o":"m 193 1185 b 300 1079 193 1128 231 1079 b 406 1185 368 1079 406 1128 b 300 1290 406 1242 368 1290 b 193 1185 232 1290 193 1242 z m 492 1185 b 599 1079 492 1128 529 1079 b 704 1185 667 1079 704 1128 b 599 1290 704 1242 667 1290 b 492 1185 531 1290 492 1242 z m 318 613 l 318 789 l 821 789 l 821 993 l 68 993 l 68 0 l 829 0 l 829 204 l 318 204 l 318 408 l 751 408 l 751 613 z "},"Ė":{"ha":872,"x_min":0,"x_max":0,"o":"m 342 1185 b 449 1079 342 1128 379 1079 b 554 1185 517 1079 554 1128 b 449 1290 554 1242 517 1290 b 342 1185 381 1290 342 1242 z m 318 613 l 318 789 l 821 789 l 821 993 l 68 993 l 68 0 l 829 0 l 829 204 l 318 204 l 318 408 l 751 408 l 751 613 z "},"È":{"ha":872,"x_min":0,"x_max":0,"o":"m 474 1282 l 224 1282 l 367 1088 l 533 1088 z m 318 613 l 318 789 l 821 789 l 821 993 l 68 993 l 68 0 l 829 0 l 829 204 l 318 204 l 318 408 l 751 408 l 751 613 z "},"Ē":{"ha":872,"x_min":0,"x_max":0,"o":"m 250 1254 l 250 1115 l 647 1115 l 647 1254 z m 318 613 l 318 789 l 821 789 l 821 993 l 68 993 l 68 0 l 829 0 l 829 204 l 318 204 l 318 408 l 751 408 l 751 613 z "},"Ę":{"ha":872,"x_min":0,"x_max":0,"o":"m 800 -115 b 757 -85 772 -115 757 -106 b 824 0 757 -56 788 -31 l 829 0 l 829 204 l 318 204 l 318 408 l 751 408 l 751 613 l 318 613 l 318 789 l 821 789 l 821 993 l 68 993 l 68 0 l 683 0 b 586 -129 639 -21 586 -64 b 744 -246 586 -204 640 -246 b 857 -231 783 -246 825 -239 l 857 -106 b 800 -115 838 -111 818 -115 z "},"F":{"ha":836,"x_min":0,"x_max":0,"o":"m 318 571 l 318 789 l 807 789 l 807 993 l 68 993 l 68 0 l 318 0 l 318 367 l 717 367 l 717 571 z "},"G":{"ha":1024,"x_min":0,"x_max":0,"o":"m 707 664 l 957 664 b 510 1015 933 854 782 1015 b 29 497 197 1015 29 796 b 479 -22 29 197 197 -22 b 765 126 625 -22 718 36 l 768 126 l 793 0 l 972 0 l 972 528 l 525 528 l 525 347 l 714 347 b 515 182 711 251 631 182 b 279 497 342 182 279 310 b 506 811 279 683 342 811 b 707 664 643 811 689 732 z "},"Ğ":{"ha":1024,"x_min":0,"x_max":0,"o":"m 508 1079 b 731 1282 638 1079 725 1163 l 603 1282 b 508 1215 599 1242 568 1215 b 414 1282 449 1215 418 1242 l 286 1282 b 508 1079 290 1158 382 1079 z m 707 664 l 957 664 b 510 1015 933 854 782 1015 b 29 497 197 1015 29 796 b 479 -22 29 197 197 -22 b 765 126 625 -22 718 36 l 768 126 l 793 0 l 972 0 l 972 528 l 525 528 l 525 347 l 714 347 b 515 182 711 251 631 182 b 279 497 342 182 279 310 b 506 811 279 683 342 811 b 707 664 643 811 689 732 z "},"Ģ":{"ha":1024,"x_min":0,"x_max":0,"o":"m 707 664 l 957 664 b 510 1015 933 854 782 1015 b 29 497 197 1015 29 796 b 479 -22 29 197 197 -22 b 765 126 625 -22 718 36 l 768 126 l 793 0 l 972 0 l 972 528 l 525 528 l 525 347 l 714 347 b 515 182 711 251 631 182 b 279 497 342 182 279 310 b 506 811 279 683 342 811 b 707 664 643 811 689 732 z m 513 -235 b 421 -301 513 -272 475 -294 l 421 -365 b 604 -189 549 -353 604 -281 b 506 -65 604 -121 572 -65 b 410 -157 451 -65 410 -107 b 513 -235 410 -207 451 -249 z "},"Ġ":{"ha":1024,"x_min":0,"x_max":0,"o":"m 401 1185 b 508 1079 401 1128 439 1079 b 614 1185 576 1079 614 1128 b 508 1290 614 1242 576 1290 b 401 1185 440 1290 401 1242 z m 707 664 l 957 664 b 510 1015 933 854 782 1015 b 29 497 197 1015 29 796 b 479 -22 29 197 197 -22 b 765 126 625 -22 718 36 l 768 126 l 793 0 l 972 0 l 972 528 l 525 528 l 525 347 l 714 347 b 515 182 711 251 631 182 b 279 497 342 182 279 310 b 506 811 279 683 342 811 b 707 664 643 811 689 732 z "},"H":{"ha":976,"x_min":0,"x_max":0,"o":"m 68 993 l 68 0 l 318 0 l 318 400 l 658 400 l 658 0 l 908 0 l 908 993 l 658 993 l 658 604 l 318 604 l 318 993 z "},"Ħ":{"ha":992,"x_min":0,"x_max":0,"o":"m 985 856 l 910 856 l 910 993 l 660 993 l 660 856 l 319 856 l 319 993 l 69 993 l 69 856 l -7 856 l -7 731 l 69 731 l 69 0 l 319 0 l 319 400 l 660 400 l 660 0 l 910 0 l 910 731 l 985 731 z m 660 604 l 319 604 l 319 731 l 660 731 z "},"I":{"ha":388,"x_min":0,"x_max":0,"o":"m 69 993 l 69 0 l 319 0 l 319 993 z "},"Í":{"ha":388,"x_min":0,"x_max":0,"o":"m 168 1282 l 108 1088 l 275 1088 l 418 1282 z m 69 993 l 69 0 l 319 0 l 319 993 z "},"Î":{"ha":388,"x_min":0,"x_max":0,"o":"m -62 1088 l 131 1088 l 193 1183 l 196 1183 l 258 1088 l 451 1088 l 303 1282 l 86 1282 z m 69 993 l 69 0 l 319 0 l 319 993 z "},"Ï":{"ha":388,"x_min":0,"x_max":0,"o":"m -61 1185 b 46 1079 -61 1128 -24 1079 b 151 1185 114 1079 151 1128 b 46 1290 151 1242 114 1290 b -61 1185 -22 1290 -61 1242 z m 238 1185 b 344 1079 238 1128 275 1079 b 450 1185 413 1079 450 1128 b 344 1290 450 1242 413 1290 b 238 1185 276 1290 238 1242 z m 69 993 l 69 0 l 319 0 l 319 993 z "},"İ":{"ha":388,"x_min":0,"x_max":0,"o":"m 88 1185 b 194 1079 88 1128 125 1079 b 300 1185 263 1079 300 1128 b 194 1290 300 1242 263 1290 b 88 1185 126 1290 88 1242 z m 69 993 l 69 0 l 319 0 l 319 993 z "},"Ì":{"ha":388,"x_min":0,"x_max":0,"o":"m 219 1282 l -31 1282 l 113 1088 l 279 1088 z m 69 993 l 69 0 l 319 0 l 319 993 z "},"Ī":{"ha":388,"x_min":0,"x_max":0,"o":"m -4 1254 l -4 1115 l 393 1115 l 393 1254 z m 69 993 l 69 0 l 319 0 l 319 993 z "},"Į":{"ha":388,"x_min":0,"x_max":0,"o":"m 294 -115 b 251 -85 267 -115 251 -106 b 318 0 251 -56 282 -31 l 319 0 l 319 993 l 69 993 l 69 0 l 178 0 b 81 -129 133 -21 81 -64 b 239 -246 81 -204 135 -246 b 351 -231 278 -246 319 -239 l 351 -106 b 294 -115 332 -111 313 -115 z "},"J":{"ha":757,"x_min":0,"x_max":0,"o":"m 699 331 l 699 993 l 449 993 l 449 331 b 344 182 449 236 426 182 b 240 331 263 182 240 236 l 240 414 l 18 414 l 18 331 b 358 -22 18 139 86 -22 b 699 331 631 -22 699 139 z "},"K":{"ha":968,"x_min":0,"x_max":0,"o":"m 68 993 l 68 0 l 318 0 l 318 263 l 418 376 l 678 0 l 969 0 l 578 556 l 956 993 l 664 993 l 318 590 l 318 993 z "},"Ķ":{"ha":968,"x_min":0,"x_max":0,"o":"m 68 993 l 68 0 l 318 0 l 318 263 l 418 376 l 678 0 l 969 0 l 578 556 l 956 993 l 664 993 l 318 590 l 318 993 z m 497 -235 b 406 -301 497 -272 460 -294 l 406 -365 b 589 -189 533 -353 589 -281 b 490 -65 589 -121 557 -65 b 394 -157 436 -65 394 -107 b 497 -235 394 -207 436 -249 z "},"L":{"ha":785,"x_min":0,"x_max":0,"o":"m 68 993 l 68 0 l 760 0 l 760 204 l 318 204 l 318 993 z "},"Ĺ":{"ha":785,"x_min":0,"x_max":0,"o":"m 171 1282 l 111 1088 l 278 1088 l 421 1282 z m 68 993 l 68 0 l 760 0 l 760 204 l 318 204 l 318 993 z "},"Ľ":{"ha":785,"x_min":0,"x_max":0,"o":"m 590 831 b 499 764 590 793 553 771 l 499 700 b 682 876 626 713 682 785 b 583 1000 682 944 650 1000 b 488 908 529 1000 488 958 b 590 831 488 858 529 817 z m 68 993 l 68 0 l 760 0 l 760 204 l 318 204 l 318 993 z "},"Ļ":{"ha":785,"x_min":0,"x_max":0,"o":"m 68 993 l 68 0 l 760 0 l 760 204 l 318 204 l 318 993 z m 419 -235 b 328 -301 419 -272 382 -294 l 328 -365 b 511 -189 456 -353 511 -281 b 413 -65 511 -121 479 -65 b 317 -157 358 -65 317 -107 b 419 -235 317 -207 358 -249 z "},"Ł":{"ha":785,"x_min":0,"x_max":0,"o":"m 318 204 l 318 483 l 568 668 l 568 831 l 318 646 l 318 993 l 68 993 l 68 461 l -15 400 l -15 238 l 68 299 l 68 0 l 760 0 l 760 204 z "},"M":{"ha":1158,"x_min":0,"x_max":0,"o":"m 68 0 l 304 0 l 304 618 l 307 618 l 492 0 l 667 0 l 851 618 l 854 618 l 854 0 l 1090 0 l 1090 993 l 785 993 l 581 360 l 578 360 l 374 993 l 68 993 z "},"N":{"ha":986,"x_min":0,"x_max":0,"o":"m 68 0 l 318 0 l 318 590 l 321 590 l 668 0 l 918 0 l 918 993 l 668 993 l 668 403 l 665 403 l 318 993 l 68 993 z "},"Ń":{"ha":986,"x_min":0,"x_max":0,"o":"m 467 1282 l 407 1088 l 574 1088 l 717 1282 z m 68 0 l 318 0 l 318 590 l 321 590 l 668 0 l 918 0 l 918 993 l 668 993 l 668 403 l 665 403 l 318 993 l 68 993 z "},"Ň":{"ha":986,"x_min":0,"x_max":0,"o":"m 236 1282 l 385 1088 l 601 1088 l 750 1282 l 557 1282 l 494 1186 l 492 1186 l 429 1282 z m 68 0 l 318 0 l 318 590 l 321 590 l 668 0 l 918 0 l 918 993 l 668 993 l 668 403 l 665 403 l 318 993 l 68 993 z "},"Ņ":{"ha":986,"x_min":0,"x_max":0,"o":"m 68 0 l 318 0 l 318 590 l 321 590 l 668 0 l 918 0 l 918 993 l 668 993 l 668 403 l 665 403 l 318 993 l 68 993 z m 499 -235 b 407 -301 499 -272 461 -294 l 407 -365 b 590 -189 535 -353 590 -281 b 492 -65 590 -121 558 -65 b 396 -157 438 -65 396 -107 b 499 -235 396 -207 438 -249 z "},"Ŋ":{"ha":986,"x_min":0,"x_max":0,"o":"m 68 0 l 318 0 l 318 590 l 321 590 l 668 0 b 506 -69 644 -50 617 -69 l 506 -232 b 642 -246 550 -242 594 -246 b 918 64 842 -246 918 -122 l 918 993 l 668 993 l 668 403 l 665 403 l 318 993 l 68 993 z "},"Ñ":{"ha":986,"x_min":0,"x_max":0,"o":"m 263 1107 l 378 1107 b 424 1158 378 1132 386 1158 b 601 1107 476 1158 538 1107 b 724 1294 681 1107 724 1158 l 608 1294 b 563 1242 608 1268 600 1242 b 385 1294 510 1242 449 1294 b 263 1107 306 1294 263 1242 z m 68 0 l 318 0 l 318 590 l 321 590 l 668 0 l 918 0 l 918 993 l 668 993 l 668 403 l 665 403 l 318 993 l 68 993 z "},"O":{"ha":1039,"x_min":0,"x_max":0,"o":"m 519 -22 b 1011 497 832 -22 1011 197 b 519 1015 1011 796 832 1015 b 28 497 204 1015 28 796 b 519 -22 28 197 204 -22 z m 519 182 b 278 497 338 182 278 324 b 519 811 278 669 338 811 b 761 497 700 811 761 669 b 519 182 761 324 700 182 z "},"Ó":{"ha":1039,"x_min":0,"x_max":0,"o":"m 493 1282 l 433 1088 l 600 1088 l 743 1282 z m 519 -22 b 1011 497 832 -22 1011 197 b 519 1015 1011 796 832 1015 b 28 497 204 1015 28 796 b 519 -22 28 197 204 -22 z m 519 182 b 278 497 338 182 278 324 b 519 811 278 669 338 811 b 761 497 700 811 761 669 b 519 182 761 324 700 182 z "},"Ô":{"ha":1039,"x_min":0,"x_max":0,"o":"m 263 1088 l 456 1088 l 518 1183 l 521 1183 l 583 1088 l 776 1088 l 628 1282 l 411 1282 z m 519 -22 b 1011 497 832 -22 1011 197 b 519 1015 1011 796 832 1015 b 28 497 204 1015 28 796 b 519 -22 28 197 204 -22 z m 519 182 b 278 497 338 182 278 324 b 519 811 278 669 338 811 b 761 497 700 811 761 669 b 519 182 761 324 700 182 z "},"Ö":{"ha":1039,"x_min":0,"x_max":0,"o":"m 264 1185 b 371 1079 264 1128 301 1079 b 476 1185 439 1079 476 1128 b 371 1290 476 1242 439 1290 b 264 1185 303 1290 264 1242 z m 563 1185 b 669 1079 563 1128 600 1079 b 775 1185 738 1079 775 1128 b 669 1290 775 1242 738 1290 b 563 1185 601 1290 563 1242 z m 519 -22 b 1011 497 832 -22 1011 197 b 519 1015 1011 796 832 1015 b 28 497 204 1015 28 796 b 519 -22 28 197 204 -22 z m 519 182 b 278 497 338 182 278 324 b 519 811 278 669 338 811 b 761 497 700 811 761 669 b 519 182 761 324 700 182 z "},"Ò":{"ha":1039,"x_min":0,"x_max":0,"o":"m 544 1282 l 294 1282 l 438 1088 l 604 1088 z m 519 -22 b 1011 497 832 -22 1011 197 b 519 1015 1011 796 832 1015 b 28 497 204 1015 28 796 b 519 -22 28 197 204 -22 z m 519 182 b 278 497 338 182 278 324 b 519 811 278 669 338 811 b 761 497 700 811 761 669 b 519 182 761 324 700 182 z "},"Ő":{"ha":1039,"x_min":0,"x_max":0,"o":"m 336 1282 l 276 1088 l 443 1088 l 586 1282 z m 642 1282 l 582 1088 l 749 1088 l 892 1282 z m 519 -22 b 1011 497 832 -22 1011 197 b 519 1015 1011 796 832 1015 b 28 497 204 1015 28 796 b 519 -22 28 197 204 -22 z m 519 182 b 278 497 338 182 278 324 b 519 811 278 669 338 811 b 761 497 700 811 761 669 b 519 182 761 324 700 182 z "},"Ō":{"ha":1039,"x_min":0,"x_max":0,"o":"m 321 1254 l 321 1115 l 718 1115 l 718 1254 z m 519 -22 b 1011 497 832 -22 1011 197 b 519 1015 1011 796 832 1015 b 28 497 204 1015 28 796 b 519 -22 28 197 204 -22 z m 519 182 b 278 497 338 182 278 324 b 519 811 278 669 338 811 b 761 497 700 811 761 669 b 519 182 761 324 700 182 z "},"Ø":{"ha":1044,"x_min":0,"x_max":0,"o":"m 1017 935 l 957 993 l 858 894 b 522 1015 776 971 663 1015 b 31 497 207 1015 31 796 b 128 163 31 367 64 250 l 28 61 l 86 1 l 183 99 b 522 -22 265 22 381 -22 b 1014 497 835 -22 1014 197 b 914 832 1014 628 979 743 z m 281 497 b 522 811 281 669 340 811 b 699 735 604 811 661 782 l 303 338 b 281 497 288 385 281 439 z m 764 497 b 522 182 764 324 703 182 b 343 260 439 182 382 211 l 740 658 b 764 497 757 611 764 556 z "},"Õ":{"ha":1039,"x_min":0,"x_max":0,"o":"m 289 1107 l 404 1107 b 450 1158 404 1132 413 1158 b 628 1107 503 1158 564 1107 b 750 1294 707 1107 750 1158 l 635 1294 b 589 1242 635 1268 626 1242 b 411 1294 536 1242 475 1294 b 289 1107 332 1294 289 1242 z m 519 -22 b 1011 497 832 -22 1011 197 b 519 1015 1011 796 832 1015 b 28 497 204 1015 28 796 b 519 -22 28 197 204 -22 z m 519 182 b 278 497 338 182 278 324 b 519 811 278 669 338 811 b 761 497 700 811 761 669 b 519 182 761 324 700 182 z "},"Œ":{"ha":1524,"x_min":0,"x_max":0,"o":"m 969 204 l 969 408 l 1403 408 l 1403 613 l 969 613 l 969 789 l 1472 789 l 1472 993 l 719 993 l 719 928 b 478 1015 660 981 582 1015 b 28 497 204 1015 28 796 b 478 -22 28 197 204 -22 b 719 65 582 -22 660 13 l 719 0 l 1481 0 l 1481 204 z m 519 182 b 278 497 338 182 278 324 b 519 811 278 669 338 811 b 719 683 611 811 679 761 l 719 310 b 519 182 679 232 611 182 z "},"P":{"ha":906,"x_min":0,"x_max":0,"o":"m 68 0 l 318 0 l 318 360 l 550 360 b 886 676 757 360 886 468 b 550 993 886 885 757 993 l 68 993 z m 318 789 l 497 789 b 636 676 583 789 636 760 b 497 564 636 593 583 564 l 318 564 z "},"Þ":{"ha":903,"x_min":0,"x_max":0,"o":"m 68 0 l 318 0 l 318 221 l 550 221 b 886 538 757 221 886 329 b 550 854 886 746 757 854 l 318 854 l 318 993 l 68 993 z m 318 650 l 497 650 b 636 538 583 650 636 621 b 497 425 636 454 583 425 l 318 425 z "},"Q":{"ha":1039,"x_min":0,"x_max":0,"o":"m 1011 497 b 519 1015 1011 796 832 1015 b 28 497 204 1015 28 796 b 519 -22 28 197 204 -22 b 763 32 613 -22 694 -3 l 875 -81 l 1010 54 l 908 156 b 1011 497 975 246 1011 364 z m 519 182 b 278 497 338 182 278 324 b 519 811 278 669 338 811 b 761 497 700 811 761 669 b 736 329 761 436 753 378 l 614 451 l 479 317 l 601 194 b 519 182 578 186 550 182 z "},"R":{"ha":932,"x_min":0,"x_max":0,"o":"m 68 0 l 318 0 l 318 346 l 474 346 b 644 0 686 346 596 42 l 904 0 l 904 14 b 689 458 847 31 938 415 l 689 461 b 890 704 813 489 890 572 b 536 993 890 892 757 993 l 68 993 z m 318 789 l 488 789 b 640 669 588 789 640 753 b 488 550 640 586 588 550 l 318 550 z "},"Ŕ":{"ha":932,"x_min":0,"x_max":0,"o":"m 418 1282 l 358 1088 l 525 1088 l 668 1282 z m 68 0 l 318 0 l 318 346 l 474 346 b 644 0 686 346 596 42 l 904 0 l 904 14 b 689 458 847 31 938 415 l 689 461 b 890 704 813 489 890 572 b 536 993 890 892 757 993 l 68 993 z m 318 789 l 488 789 b 640 669 588 789 640 753 b 488 550 640 586 588 550 l 318 550 z "},"Ř":{"ha":932,"x_min":0,"x_max":0,"o":"m 188 1282 l 336 1088 l 553 1088 l 701 1282 l 508 1282 l 446 1186 l 443 1186 l 381 1282 z m 68 0 l 318 0 l 318 346 l 474 346 b 644 0 686 346 596 42 l 904 0 l 904 14 b 689 458 847 31 938 415 l 689 461 b 890 704 813 489 890 572 b 536 993 890 892 757 993 l 68 993 z m 318 789 l 488 789 b 640 669 588 789 640 753 b 488 550 640 586 588 550 l 318 550 z "},"Ŗ":{"ha":932,"x_min":0,"x_max":0,"o":"m 68 0 l 318 0 l 318 346 l 474 346 b 644 0 686 346 596 42 l 904 0 l 904 14 b 689 458 847 31 938 415 l 689 461 b 890 704 813 489 890 572 b 536 993 890 892 757 993 l 68 993 z m 318 789 l 488 789 b 640 669 588 789 640 753 b 488 550 640 586 588 550 l 318 550 z m 492 -235 b 400 -301 492 -272 454 -294 l 400 -365 b 583 -189 528 -353 583 -281 b 485 -65 583 -121 551 -65 b 389 -157 431 -65 389 -107 b 492 -235 389 -207 431 -249 z "},"S":{"ha":899,"x_min":0,"x_max":0,"o":"m 486 617 b 299 732 361 651 299 671 b 432 811 299 788 357 811 b 603 692 528 811 592 767 l 853 692 b 432 1015 846 893 664 1015 b 49 714 218 1015 49 931 b 369 407 49 531 199 457 b 617 268 510 365 617 347 b 474 182 617 218 567 182 b 271 326 363 182 271 221 l 21 326 b 474 -22 21 106 215 -22 b 867 292 722 -22 867 101 b 486 617 867 504 674 565 z "},"Ś":{"ha":899,"x_min":0,"x_max":0,"o":"m 418 1282 l 358 1088 l 525 1088 l 668 1282 z m 486 617 b 299 732 361 651 299 671 b 432 811 299 788 357 811 b 603 692 528 811 592 767 l 853 692 b 432 1015 846 893 664 1015 b 49 714 218 1015 49 931 b 369 407 49 531 199 457 b 617 268 510 365 617 347 b 474 182 617 218 567 182 b 271 326 363 182 271 221 l 21 326 b 474 -22 21 106 215 -22 b 867 292 722 -22 867 101 b 486 617 867 504 674 565 z "},"Š":{"ha":899,"x_min":0,"x_max":0,"o":"m 188 1282 l 336 1088 l 553 1088 l 701 1282 l 508 1282 l 446 1186 l 443 1186 l 381 1282 z m 486 617 b 299 732 361 651 299 671 b 432 811 299 788 357 811 b 603 692 528 811 592 767 l 853 692 b 432 1015 846 893 664 1015 b 49 714 218 1015 49 931 b 369 407 49 531 199 457 b 617 268 510 365 617 347 b 474 182 617 218 567 182 b 271 326 363 182 271 221 l 21 326 b 474 -22 21 106 215 -22 b 867 292 722 -22 867 101 b 486 617 867 504 674 565 z "},"Ş":{"ha":899,"x_min":0,"x_max":0,"o":"m 508 -21 b 867 292 736 -10 867 111 b 486 617 867 504 674 565 b 299 732 361 651 299 671 b 432 811 299 788 357 811 b 603 692 528 811 592 767 l 853 692 b 432 1015 846 893 664 1015 b 49 714 218 1015 49 931 b 369 407 49 531 199 457 b 617 268 510 365 617 347 b 474 182 617 218 567 182 b 271 326 363 182 271 221 l 21 326 b 428 -21 21 119 193 -7 l 354 -106 l 378 -139 b 426 -129 393 -133 408 -129 b 479 -167 456 -129 479 -140 b 418 -207 479 -196 443 -207 b 322 -186 385 -207 349 -199 l 281 -235 b 436 -275 319 -258 371 -275 b 618 -168 535 -275 618 -235 b 463 -75 618 -96 542 -67 l 463 -72 z "},"Ș":{"ha":899,"x_min":0,"x_max":0,"o":"m 486 617 b 299 732 361 651 299 671 b 432 811 299 788 357 811 b 603 692 528 811 592 767 l 853 692 b 432 1015 846 893 664 1015 b 49 714 218 1015 49 931 b 369 407 49 531 199 457 b 617 268 510 365 617 347 b 474 182 617 218 567 182 b 271 326 363 182 271 221 l 21 326 b 474 -22 21 106 215 -22 b 867 292 722 -22 867 101 b 486 617 867 504 674 565 z m 478 -235 b 386 -301 478 -272 440 -294 l 386 -365 b 569 -189 514 -353 569 -281 b 471 -65 569 -121 538 -65 b 375 -157 417 -65 375 -107 b 478 -235 375 -207 417 -249 z "},"T":{"ha":874,"x_min":0,"x_max":0,"o":"m 313 0 l 563 0 l 563 789 l 850 789 l 850 993 l 24 993 l 24 789 l 313 789 z "},"Ŧ":{"ha":874,"x_min":0,"x_max":0,"o":"m 850 789 l 850 993 l 24 993 l 24 789 l 313 789 l 313 576 l 126 576 l 126 451 l 313 451 l 313 0 l 563 0 l 563 451 l 749 451 l 749 576 l 563 576 l 563 789 z "},"Ť":{"ha":874,"x_min":0,"x_max":0,"o":"m 181 1282 l 329 1088 l 546 1088 l 694 1282 l 501 1282 l 439 1186 l 436 1186 l 374 1282 z m 313 0 l 563 0 l 563 789 l 850 789 l 850 993 l 24 993 l 24 789 l 313 789 z "},"Ţ":{"ha":874,"x_min":0,"x_max":0,"o":"m 481 0 l 563 0 l 563 789 l 850 789 l 850 993 l 24 993 l 24 789 l 313 789 l 313 0 l 399 0 l 319 -92 l 343 -125 b 392 -115 358 -119 374 -115 b 444 -153 421 -115 444 -126 b 383 -193 444 -182 408 -193 b 288 -172 350 -193 314 -185 l 246 -221 b 401 -261 285 -244 336 -261 b 583 -154 500 -261 583 -221 b 428 -61 583 -82 507 -53 l 428 -58 z "},"Ț":{"ha":874,"x_min":0,"x_max":0,"o":"m 313 0 l 563 0 l 563 789 l 850 789 l 850 993 l 24 993 l 24 789 l 313 789 z m 443 -221 b 351 -287 443 -258 406 -281 l 351 -351 b 535 -175 479 -339 535 -267 b 436 -51 535 -107 503 -51 b 340 -143 382 -51 340 -93 b 443 -221 340 -193 382 -235 z "},"U":{"ha":953,"x_min":0,"x_max":0,"o":"m 892 358 l 892 993 l 642 993 l 642 358 b 476 182 642 229 586 182 b 311 358 367 182 311 229 l 311 993 l 61 993 l 61 358 b 476 -22 61 111 176 -22 b 892 358 776 -22 892 111 z "},"Ú":{"ha":953,"x_min":0,"x_max":0,"o":"m 450 1282 l 390 1088 l 557 1088 l 700 1282 z m 892 358 l 892 993 l 642 993 l 642 358 b 476 182 642 229 586 182 b 311 358 367 182 311 229 l 311 993 l 61 993 l 61 358 b 476 -22 61 111 176 -22 b 892 358 776 -22 892 111 z "},"Û":{"ha":953,"x_min":0,"x_max":0,"o":"m 219 1088 l 413 1088 l 475 1183 l 478 1183 l 540 1088 l 733 1088 l 585 1282 l 368 1282 z m 892 358 l 892 993 l 642 993 l 642 358 b 476 182 642 229 586 182 b 311 358 367 182 311 229 l 311 993 l 61 993 l 61 358 b 476 -22 61 111 176 -22 b 892 358 776 -22 892 111 z "},"Ü":{"ha":953,"x_min":0,"x_max":0,"o":"m 221 1185 b 328 1079 221 1128 258 1079 b 433 1185 396 1079 433 1128 b 328 1290 433 1242 396 1290 b 221 1185 260 1290 221 1242 z m 519 1185 b 626 1079 519 1128 557 1079 b 732 1185 694 1079 732 1128 b 626 1290 732 1242 694 1290 b 519 1185 558 1290 519 1242 z m 892 358 l 892 993 l 642 993 l 642 358 b 476 182 642 229 586 182 b 311 358 367 182 311 229 l 311 993 l 61 993 l 61 358 b 476 -22 61 111 176 -22 b 892 358 776 -22 892 111 z "},"Ù":{"ha":953,"x_min":0,"x_max":0,"o":"m 501 1282 l 251 1282 l 394 1088 l 561 1088 z m 892 358 l 892 993 l 642 993 l 642 358 b 476 182 642 229 586 182 b 311 358 367 182 311 229 l 311 993 l 61 993 l 61 358 b 476 -22 61 111 176 -22 b 892 358 776 -22 892 111 z "},"Ű":{"ha":953,"x_min":0,"x_max":0,"o":"m 293 1282 l 233 1088 l 400 1088 l 543 1282 z m 599 1282 l 539 1088 l 706 1088 l 849 1282 z m 892 358 l 892 993 l 642 993 l 642 358 b 476 182 642 229 586 182 b 311 358 367 182 311 229 l 311 993 l 61 993 l 61 358 b 476 -22 61 111 176 -22 b 892 358 776 -22 892 111 z "},"Ū":{"ha":953,"x_min":0,"x_max":0,"o":"m 278 1254 l 278 1115 l 675 1115 l 675 1254 z m 892 358 l 892 993 l 642 993 l 642 358 b 476 182 642 229 586 182 b 311 358 367 182 311 229 l 311 993 l 61 993 l 61 358 b 476 -22 61 111 176 -22 b 892 358 776 -22 892 111 z "},"Ų":{"ha":953,"x_min":0,"x_max":0,"o":"m 642 993 l 642 358 b 476 182 642 229 586 182 b 311 358 367 182 311 229 l 311 993 l 61 993 l 61 358 b 476 -22 61 111 176 -22 l 482 -22 b 422 -129 450 -46 422 -82 b 581 -246 422 -204 476 -246 b 693 -231 619 -246 661 -239 l 693 -106 b 636 -115 674 -111 654 -115 b 593 -85 608 -115 593 -106 b 660 0 593 -56 624 -31 b 892 358 825 47 892 169 l 892 993 z "},"Ů":{"ha":953,"x_min":0,"x_max":0,"o":"m 476 1072 b 618 1211 554 1072 618 1125 b 476 1350 618 1296 554 1350 b 335 1211 400 1350 335 1296 b 476 1072 335 1125 400 1072 z m 476 1149 b 419 1211 443 1149 419 1171 b 476 1274 419 1251 443 1274 b 535 1211 511 1274 535 1251 b 476 1149 535 1171 511 1149 z m 892 358 l 892 993 l 642 993 l 642 358 b 476 182 642 229 586 182 b 311 358 367 182 311 229 l 311 993 l 61 993 l 61 358 b 476 -22 61 111 176 -22 b 892 358 776 -22 892 111 z "},"V":{"ha":904,"x_min":0,"x_max":0,"o":"m -3 993 l 319 0 l 583 0 l 906 993 l 642 993 l 453 297 l 450 297 l 263 993 z "},"W":{"ha":1306,"x_min":0,"x_max":0,"o":"m 0 993 l 253 0 l 503 0 l 651 619 l 654 619 l 803 0 l 1053 0 l 1306 993 l 1056 993 l 928 319 l 925 319 l 771 993 l 535 993 l 381 319 l 378 319 l 250 993 z "},"Ẃ":{"ha":1306,"x_min":0,"x_max":0,"o":"m 626 1282 l 567 1088 l 733 1088 l 876 1282 z m 0 993 l 253 0 l 503 0 l 651 619 l 654 619 l 803 0 l 1053 0 l 1306 993 l 1056 993 l 928 319 l 925 319 l 771 993 l 535 993 l 381 319 l 378 319 l 250 993 z "},"Ŵ":{"ha":1306,"x_min":0,"x_max":0,"o":"m 396 1088 l 589 1088 l 651 1183 l 654 1183 l 717 1088 l 910 1088 l 761 1282 l 544 1282 z m 0 993 l 253 0 l 503 0 l 651 619 l 654 619 l 803 0 l 1053 0 l 1306 993 l 1056 993 l 928 319 l 925 319 l 771 993 l 535 993 l 381 319 l 378 319 l 250 993 z "},"Ẅ":{"ha":1306,"x_min":0,"x_max":0,"o":"m 397 1185 b 504 1079 397 1128 435 1079 b 610 1185 572 1079 610 1128 b 504 1290 610 1242 572 1290 b 397 1185 436 1290 397 1242 z m 696 1185 b 803 1079 696 1128 733 1079 b 908 1185 871 1079 908 1128 b 803 1290 908 1242 871 1290 b 696 1185 735 1290 696 1242 z m 0 993 l 253 0 l 503 0 l 651 619 l 654 619 l 803 0 l 1053 0 l 1306 993 l 1056 993 l 928 319 l 925 319 l 771 993 l 535 993 l 381 319 l 378 319 l 250 993 z "},"Ẁ":{"ha":1306,"x_min":0,"x_max":0,"o":"m 678 1282 l 428 1282 l 571 1088 l 738 1088 z m 0 993 l 253 0 l 503 0 l 651 619 l 654 619 l 803 0 l 1053 0 l 1306 993 l 1056 993 l 928 319 l 925 319 l 771 993 l 535 993 l 381 319 l 378 319 l 250 993 z "},"X":{"ha":960,"x_min":0,"x_max":0,"o":"m 333 507 l 4 0 l 282 0 l 478 322 l 481 322 l 678 0 l 956 0 l 626 510 l 928 993 l 664 993 l 481 690 l 478 690 l 296 993 l 32 993 z "},"Y":{"ha":921,"x_min":0,"x_max":0,"o":"m 1 993 l 335 367 l 335 0 l 585 0 l 585 367 l 919 993 l 656 993 l 461 585 l 458 585 l 265 993 z "},"Ý":{"ha":921,"x_min":0,"x_max":0,"o":"m 435 1282 l 375 1088 l 542 1088 l 685 1282 z m 1 993 l 335 367 l 335 0 l 585 0 l 585 367 l 919 993 l 656 993 l 461 585 l 458 585 l 265 993 z "},"Ŷ":{"ha":921,"x_min":0,"x_max":0,"o":"m 204 1088 l 397 1088 l 460 1183 l 463 1183 l 525 1088 l 718 1088 l 569 1282 l 353 1282 z m 1 993 l 335 367 l 335 0 l 585 0 l 585 367 l 919 993 l 656 993 l 461 585 l 458 585 l 265 993 z "},"Ÿ":{"ha":921,"x_min":0,"x_max":0,"o":"m 206 1185 b 313 1079 206 1128 243 1079 b 418 1185 381 1079 418 1128 b 313 1290 418 1242 381 1290 b 206 1185 244 1290 206 1242 z m 504 1185 b 611 1079 504 1128 542 1079 b 717 1185 679 1079 717 1128 b 611 1290 717 1242 679 1290 b 504 1185 543 1290 504 1242 z m 1 993 l 335 367 l 335 0 l 585 0 l 585 367 l 919 993 l 656 993 l 461 585 l 458 585 l 265 993 z "},"Ỳ":{"ha":921,"x_min":0,"x_max":0,"o":"m 486 1282 l 236 1282 l 379 1088 l 546 1088 z m 1 993 l 335 367 l 335 0 l 585 0 l 585 367 l 919 993 l 656 993 l 461 585 l 458 585 l 265 993 z "},"Z":{"ha":847,"x_min":0,"x_max":0,"o":"m 64 993 l 64 789 l 490 789 l 490 786 l 36 204 l 36 0 l 810 0 l 810 204 l 342 204 l 342 207 l 796 789 l 796 993 z "},"Ź":{"ha":847,"x_min":0,"x_max":0,"o":"m 411 1282 l 351 1088 l 518 1088 l 661 1282 z m 64 993 l 64 789 l 490 789 l 490 786 l 36 204 l 36 0 l 810 0 l 810 204 l 342 204 l 342 207 l 796 789 l 796 993 z "},"Ž":{"ha":847,"x_min":0,"x_max":0,"o":"m 181 1282 l 329 1088 l 546 1088 l 694 1282 l 501 1282 l 439 1186 l 436 1186 l 374 1282 z m 64 993 l 64 789 l 490 789 l 490 786 l 36 204 l 36 0 l 810 0 l 810 204 l 342 204 l 342 207 l 796 789 l 796 993 z "},"Ż":{"ha":847,"x_min":0,"x_max":0,"o":"m 331 1185 b 438 1079 331 1128 368 1079 b 543 1185 506 1079 543 1128 b 438 1290 543 1242 506 1290 b 331 1185 369 1290 331 1242 z m 64 993 l 64 789 l 490 789 l 490 786 l 36 204 l 36 0 l 810 0 l 810 204 l 342 204 l 342 207 l 796 789 l 796 993 z "},"a":{"ha":768,"x_min":0,"x_max":0,"o":"m 474 514 b 292 422 474 454 383 440 b 21 182 125 389 21 324 b 254 -22 21 63 104 -22 b 478 75 349 -22 432 22 l 481 75 b 608 -22 481 25 508 -22 b 738 0 653 -22 693 -17 l 738 53 b 696 106 710 53 696 68 l 696 432 b 385 733 696 656 585 733 b 49 482 153 733 56 618 l 257 482 b 383 581 264 550 303 581 b 474 514 444 581 474 556 z m 332 131 b 243 214 278 131 243 156 b 360 314 243 258 272 294 b 474 346 411 325 446 335 l 474 260 b 332 131 474 192 428 131 z "},"á":{"ha":768,"x_min":0,"x_max":0,"o":"m 358 1000 l 299 806 l 465 806 l 608 1000 z m 474 514 b 292 422 474 454 383 440 b 21 182 125 389 21 324 b 254 -22 21 63 104 -22 b 478 75 349 -22 432 22 l 481 75 b 608 -22 481 25 508 -22 b 738 0 653 -22 693 -17 l 738 53 b 696 106 710 53 696 68 l 696 432 b 385 733 696 656 585 733 b 49 482 153 733 56 618 l 257 482 b 383 581 264 550 303 581 b 474 514 444 581 474 556 z m 332 131 b 243 214 278 131 243 156 b 360 314 243 258 272 294 b 474 346 411 325 446 335 l 474 260 b 332 131 474 192 428 131 z "},"ă":{"ha":768,"x_min":0,"x_max":0,"o":"m 385 797 b 607 1000 514 797 601 881 l 479 1000 b 385 933 475 960 444 933 b 290 1000 325 933 294 960 l 163 1000 b 385 797 167 876 258 797 z m 474 514 b 292 422 474 454 383 440 b 21 182 125 389 21 324 b 254 -22 21 63 104 -22 b 478 75 349 -22 432 22 l 481 75 b 608 -22 481 25 508 -22 b 738 0 653 -22 693 -17 l 738 53 b 696 106 710 53 696 68 l 696 432 b 385 733 696 656 585 733 b 49 482 153 733 56 618 l 257 482 b 383 581 264 550 303 581 b 474 514 444 581 474 556 z m 332 131 b 243 214 278 131 243 156 b 360 314 243 258 272 294 b 474 346 411 325 446 335 l 474 260 b 332 131 474 192 428 131 z "},"â":{"ha":768,"x_min":0,"x_max":0,"o":"m 128 806 l 321 806 l 383 901 l 386 901 l 449 806 l 642 806 l 493 1000 l 276 1000 z m 474 514 b 292 422 474 454 383 440 b 21 182 125 389 21 324 b 254 -22 21 63 104 -22 b 478 75 349 -22 432 22 l 481 75 b 608 -22 481 25 508 -22 b 738 0 653 -22 693 -17 l 738 53 b 696 106 710 53 696 68 l 696 432 b 385 733 696 656 585 733 b 49 482 153 733 56 618 l 257 482 b 383 581 264 550 303 581 b 474 514 444 581 474 556 z m 332 131 b 243 214 278 131 243 156 b 360 314 243 258 272 294 b 474 346 411 325 446 335 l 474 260 b 332 131 474 192 428 131 z "},"ä":{"ha":768,"x_min":0,"x_max":0,"o":"m 129 903 b 236 797 129 846 167 797 b 342 903 304 797 342 846 b 236 1008 342 960 304 1008 b 129 903 168 1008 129 960 z m 428 903 b 535 797 428 846 465 797 b 640 903 603 797 640 846 b 535 1008 640 960 603 1008 b 428 903 467 1008 428 960 z m 474 514 b 292 422 474 454 383 440 b 21 182 125 389 21 324 b 254 -22 21 63 104 -22 b 478 75 349 -22 432 22 l 481 75 b 608 -22 481 25 508 -22 b 738 0 653 -22 693 -17 l 738 53 b 696 106 710 53 696 68 l 696 432 b 385 733 696 656 585 733 b 49 482 153 733 56 618 l 257 482 b 383 581 264 550 303 581 b 474 514 444 581 474 556 z m 332 131 b 243 214 278 131 243 156 b 360 314 243 258 272 294 b 474 346 411 325 446 335 l 474 260 b 332 131 474 192 428 131 z "},"à":{"ha":768,"x_min":0,"x_max":0,"o":"m 410 1000 l 160 1000 l 303 806 l 469 806 z m 474 514 b 292 422 474 454 383 440 b 21 182 125 389 21 324 b 254 -22 21 63 104 -22 b 478 75 349 -22 432 22 l 481 75 b 608 -22 481 25 508 -22 b 738 0 653 -22 693 -17 l 738 53 b 696 106 710 53 696 68 l 696 432 b 385 733 696 656 585 733 b 49 482 153 733 56 618 l 257 482 b 383 581 264 550 303 581 b 474 514 444 581 474 556 z m 332 131 b 243 214 278 131 243 156 b 360 314 243 258 272 294 b 474 346 411 325 446 335 l 474 260 b 332 131 474 192 428 131 z "},"ā":{"ha":768,"x_min":0,"x_max":0,"o":"m 186 972 l 186 833 l 583 833 l 583 972 z m 474 514 b 292 422 474 454 383 440 b 21 182 125 389 21 324 b 254 -22 21 63 104 -22 b 478 75 349 -22 432 22 l 481 75 b 608 -22 481 25 508 -22 b 738 0 653 -22 693 -17 l 738 53 b 696 106 710 53 696 68 l 696 432 b 385 733 696 656 585 733 b 49 482 153 733 56 618 l 257 482 b 383 581 264 550 303 581 b 474 514 444 581 474 556 z m 332 131 b 243 214 278 131 243 156 b 360 314 243 258 272 294 b 474 346 411 325 446 335 l 474 260 b 332 131 474 192 428 131 z "},"ą":{"ha":768,"x_min":0,"x_max":0,"o":"m 714 -115 b 671 -85 686 -115 671 -106 b 738 0 671 -56 701 -31 l 738 53 b 696 106 710 53 696 68 l 696 432 b 385 733 696 656 585 733 b 49 482 153 733 56 618 l 257 482 b 383 581 264 550 303 581 b 474 514 444 581 474 556 b 292 422 474 454 383 440 b 21 182 125 389 21 324 b 254 -22 21 63 104 -22 b 478 75 349 -22 432 22 l 481 75 b 565 -18 481 33 500 -7 b 500 -129 531 -43 500 -79 b 658 -246 500 -204 554 -246 b 771 -231 697 -246 739 -239 l 771 -106 b 714 -115 751 -111 732 -115 z m 474 260 b 332 131 474 192 428 131 b 243 214 278 131 243 156 b 360 314 243 258 272 294 b 474 346 411 325 446 335 z "},"å":{"ha":768,"x_min":0,"x_max":0,"o":"m 385 790 b 526 929 463 790 526 843 b 385 1068 526 1014 463 1068 b 243 929 308 1068 243 1014 b 385 790 243 843 308 790 z m 385 867 b 328 929 351 867 328 889 b 385 992 328 969 351 992 b 443 929 419 992 443 969 b 385 867 443 889 419 867 z m 474 514 b 292 422 474 454 383 440 b 21 182 125 389 21 324 b 254 -22 21 63 104 -22 b 478 75 349 -22 432 22 l 481 75 b 608 -22 481 25 508 -22 b 738 0 653 -22 693 -17 l 738 53 b 696 106 710 53 696 68 l 696 432 b 385 733 696 656 585 733 b 49 482 153 733 56 618 l 257 482 b 383 581 264 550 303 581 b 474 514 444 581 474 556 z m 332 131 b 243 214 278 131 243 156 b 360 314 243 258 272 294 b 474 346 411 325 446 335 l 474 260 b 332 131 474 192 428 131 z "},"ã":{"ha":768,"x_min":0,"x_max":0,"o":"m 154 825 l 269 825 b 315 876 269 850 278 876 b 493 825 368 876 429 825 b 615 1013 572 825 615 876 l 500 1013 b 454 960 500 986 492 960 b 276 1013 401 960 340 1013 b 154 825 197 1013 154 960 z m 474 514 b 292 422 474 454 383 440 b 21 182 125 389 21 324 b 254 -22 21 63 104 -22 b 478 75 349 -22 432 22 l 481 75 b 608 -22 481 25 508 -22 b 738 0 653 -22 693 -17 l 738 53 b 696 106 710 53 696 68 l 696 432 b 385 733 696 656 585 733 b 49 482 153 733 56 618 l 257 482 b 383 581 264 550 303 581 b 474 514 444 581 474 556 z m 332 131 b 243 214 278 131 243 156 b 360 314 243 258 272 294 b 474 346 411 325 446 335 l 474 260 b 332 131 474 192 428 131 z "},"æ":{"ha":1231,"x_min":0,"x_max":0,"o":"m 849 144 b 696 297 769 144 696 197 l 1207 297 b 840 733 1207 556 1083 733 b 617 665 751 733 676 708 b 385 733 564 714 486 733 b 49 482 153 733 56 618 l 257 482 b 383 581 264 550 303 581 b 474 514 444 581 474 556 b 292 422 474 454 383 440 b 21 182 125 389 21 324 b 282 -22 21 63 104 -22 b 582 75 340 -22 472 -22 b 853 -22 647 14 739 -22 b 1196 215 1046 -22 1157 72 l 975 215 b 849 144 961 181 925 144 z m 840 581 b 985 432 925 581 985 531 l 696 432 b 840 581 696 531 756 581 z m 474 260 b 332 131 474 192 428 131 b 243 214 278 131 243 156 b 360 314 243 258 272 294 b 474 346 411 325 446 335 z "},"b":{"ha":817,"x_min":0,"x_max":0,"o":"m 485 733 b 279 640 382 733 307 678 l 276 640 l 276 993 l 54 993 l 54 0 l 276 0 l 276 71 l 279 71 b 485 -22 307 33 382 -22 b 794 356 674 -22 794 122 b 485 733 794 589 674 733 z m 426 144 b 281 356 336 144 281 217 b 426 567 281 494 336 567 b 572 356 517 567 572 494 b 426 144 572 217 517 144 z "},"c":{"ha":750,"x_min":0,"x_max":0,"o":"m 514 446 l 732 446 b 383 733 714 611 590 733 b 22 356 164 733 22 576 b 389 -22 22 133 164 -22 b 732 268 593 -22 721 100 l 514 268 b 388 144 507 204 476 144 b 244 356 294 144 244 222 b 388 567 244 489 296 567 b 514 446 476 567 507 503 z "},"ć":{"ha":750,"x_min":0,"x_max":0,"o":"m 357 1000 l 297 806 l 464 806 l 607 1000 z m 514 446 l 732 446 b 383 733 714 611 590 733 b 22 356 164 733 22 576 b 389 -22 22 133 164 -22 b 732 268 593 -22 721 100 l 514 268 b 388 144 507 204 476 144 b 244 356 294 144 244 222 b 388 567 244 489 296 567 b 514 446 476 567 507 503 z "},"č":{"ha":750,"x_min":0,"x_max":0,"o":"m 126 1000 l 275 806 l 492 806 l 640 1000 l 447 1000 l 385 904 l 382 904 l 319 1000 z m 514 446 l 732 446 b 383 733 714 611 590 733 b 22 356 164 733 22 576 b 389 -22 22 133 164 -22 b 732 268 593 -22 721 100 l 514 268 b 388 144 507 204 476 144 b 244 356 294 144 244 222 b 388 567 244 489 296 567 b 514 446 476 567 507 503 z "},"ç":{"ha":750,"x_min":0,"x_max":0,"o":"m 388 144 b 244 356 294 144 244 222 b 388 567 244 489 296 567 b 514 446 476 567 507 503 l 732 446 b 383 733 714 611 590 733 b 22 356 164 733 22 576 b 346 -21 22 147 146 -1 l 272 -106 l 296 -139 b 344 -129 311 -133 326 -129 b 397 -167 374 -129 397 -140 b 336 -207 397 -196 361 -207 b 240 -186 303 -207 267 -199 l 199 -235 b 354 -275 238 -258 289 -275 b 536 -168 453 -275 536 -235 b 381 -75 536 -96 460 -67 l 381 -72 l 428 -21 b 732 268 608 -7 722 111 l 514 268 b 388 144 507 204 476 144 z "},"ċ":{"ha":750,"x_min":0,"x_max":0,"o":"m 276 903 b 383 797 276 846 314 797 b 489 903 451 797 489 846 b 383 1008 489 960 451 1008 b 276 903 315 1008 276 960 z m 514 446 l 732 446 b 383 733 714 611 590 733 b 22 356 164 733 22 576 b 389 -22 22 133 164 -22 b 732 268 593 -22 721 100 l 514 268 b 388 144 507 204 476 144 b 244 356 294 144 244 222 b 388 567 244 489 296 567 b 514 446 476 567 507 503 z "},"d":{"ha":817,"x_min":0,"x_max":0,"o":"m 540 993 l 540 640 l 538 640 b 332 733 510 678 435 733 b 22 356 143 733 22 589 b 332 -22 22 122 143 -22 b 538 71 435 -22 510 33 l 540 71 l 540 0 l 763 0 l 763 993 z m 390 144 b 244 356 300 144 244 217 b 390 567 244 494 300 567 b 536 356 481 567 536 494 b 390 144 536 217 481 144 z "},"ð":{"ha":804,"x_min":0,"x_max":0,"o":"m 614 875 l 711 901 l 689 982 l 543 943 b 469 993 517 965 492 982 l 192 993 b 349 892 247 963 301 929 l 221 857 l 243 776 l 422 825 b 514 676 464 781 496 732 l 514 674 b 340 733 476 708 422 733 b 22 357 169 733 22 594 b 393 -22 22 129 156 -22 b 778 439 675 -22 778 203 b 614 875 778 632 700 779 z m 393 156 b 244 357 303 156 244 224 b 393 557 244 490 303 557 b 542 357 483 557 542 490 b 393 156 542 224 483 156 z "},"ď":{"ha":817,"x_min":0,"x_max":0,"o":"m 931 1000 b 835 908 876 1000 835 958 b 938 831 835 858 876 817 b 846 764 938 793 900 771 l 846 700 b 1029 876 974 713 1029 785 b 931 1000 1029 944 997 1000 z m 540 640 l 538 640 b 332 733 510 678 435 733 b 22 356 143 733 22 589 b 332 -22 22 122 143 -22 b 538 71 435 -22 510 33 l 540 71 l 540 0 l 763 0 l 763 993 l 540 993 z m 390 144 b 244 356 300 144 244 217 b 390 567 244 494 300 567 b 536 356 481 567 536 494 b 390 144 536 217 481 144 z "},"đ":{"ha":815,"x_min":0,"x_max":0,"o":"m 832 924 l 763 924 l 763 993 l 540 993 l 540 924 l 349 924 l 349 799 l 540 799 l 540 640 l 538 640 b 332 733 510 678 435 733 b 22 356 143 733 22 589 b 332 -22 22 122 143 -22 b 538 71 435 -22 510 33 l 540 71 l 540 0 l 763 0 l 763 799 l 832 799 z m 390 144 b 244 356 300 144 244 217 b 390 567 244 494 300 567 b 536 356 481 567 536 494 b 390 144 536 217 481 144 z "},"e":{"ha":778,"x_min":0,"x_max":0,"o":"m 397 144 b 244 297 318 144 244 197 l 756 297 b 389 733 756 556 632 733 b 22 356 163 733 22 572 b 401 -22 22 133 165 -22 b 744 215 594 -22 706 72 l 524 215 b 397 144 510 181 474 144 z m 389 581 b 533 432 474 581 533 531 l 244 432 b 389 581 244 531 304 581 z "},"é":{"ha":778,"x_min":0,"x_max":0,"o":"m 613 1000 l 363 1000 l 303 806 l 469 806 z m 397 144 b 244 297 318 144 244 197 l 756 297 b 389 733 756 556 632 733 b 22 356 163 733 22 572 b 401 -22 22 133 165 -22 b 744 215 594 -22 706 72 l 524 215 b 397 144 510 181 474 144 z m 389 581 b 533 432 474 581 533 531 l 244 432 b 389 581 244 531 304 581 z "},"ě":{"ha":778,"x_min":0,"x_max":0,"o":"m 497 806 l 646 1000 l 453 1000 l 390 904 l 388 904 l 325 1000 l 132 1000 l 281 806 z m 397 144 b 244 297 318 144 244 197 l 756 297 b 389 733 756 556 632 733 b 22 356 163 733 22 572 b 401 -22 22 133 165 -22 b 744 215 594 -22 706 72 l 524 215 b 397 144 510 181 474 144 z m 389 581 b 533 432 474 581 533 531 l 244 432 b 389 581 244 531 304 581 z "},"ê":{"ha":778,"x_min":0,"x_max":0,"o":"m 388 901 l 390 901 l 453 806 l 646 806 l 497 1000 l 281 1000 l 132 806 l 325 806 z m 397 144 b 244 297 318 144 244 197 l 756 297 b 389 733 756 556 632 733 b 22 356 163 733 22 572 b 401 -22 22 133 165 -22 b 744 215 594 -22 706 72 l 524 215 b 397 144 510 181 474 144 z m 389 581 b 533 432 474 581 533 531 l 244 432 b 389 581 244 531 304 581 z "},"ë":{"ha":778,"x_min":0,"x_max":0,"o":"m 240 797 b 346 903 308 797 346 846 b 240 1008 346 960 308 1008 b 133 903 172 1008 133 960 b 240 797 133 846 171 797 z m 539 797 b 644 903 607 797 644 846 b 539 1008 644 960 607 1008 b 432 903 471 1008 432 960 b 539 797 432 846 469 797 z m 397 144 b 244 297 318 144 244 197 l 756 297 b 389 733 756 556 632 733 b 22 356 163 733 22 572 b 401 -22 22 133 165 -22 b 744 215 594 -22 706 72 l 524 215 b 397 144 510 181 474 144 z m 389 581 b 533 432 474 581 533 531 l 244 432 b 389 581 244 531 304 581 z "},"ė":{"ha":778,"x_min":0,"x_max":0,"o":"m 389 797 b 494 903 457 797 494 846 b 389 1008 494 960 457 1008 b 282 903 321 1008 282 960 b 389 797 282 846 319 797 z m 397 144 b 244 297 318 144 244 197 l 756 297 b 389 733 756 556 632 733 b 22 356 163 733 22 572 b 401 -22 22 133 165 -22 b 744 215 594 -22 706 72 l 524 215 b 397 144 510 181 474 144 z m 389 581 b 533 432 474 581 533 531 l 244 432 b 389 581 244 531 304 581 z "},"è":{"ha":778,"x_min":0,"x_max":0,"o":"m 474 806 l 414 1000 l 164 1000 l 307 806 z m 397 144 b 244 297 318 144 244 197 l 756 297 b 389 733 756 556 632 733 b 22 356 163 733 22 572 b 401 -22 22 133 165 -22 b 744 215 594 -22 706 72 l 524 215 b 397 144 510 181 474 144 z m 389 581 b 533 432 474 581 533 531 l 244 432 b 389 581 244 531 304 581 z "},"ē":{"ha":778,"x_min":0,"x_max":0,"o":"m 588 972 l 190 972 l 190 833 l 588 833 z m 397 144 b 244 297 318 144 244 197 l 756 297 b 389 733 756 556 632 733 b 22 356 163 733 22 572 b 401 -22 22 133 165 -22 b 744 215 594 -22 706 72 l 524 215 b 397 144 510 181 474 144 z m 389 581 b 533 432 474 581 533 531 l 244 432 b 389 581 244 531 304 581 z "},"ę":{"ha":778,"x_min":0,"x_max":0,"o":"m 397 144 b 244 297 318 144 244 197 l 756 297 b 389 733 756 556 632 733 b 22 356 163 733 22 572 b 364 -21 22 146 150 -6 b 301 -129 331 -44 301 -81 b 460 -246 301 -204 356 -246 b 572 -231 499 -246 540 -239 l 572 -106 b 515 -115 553 -111 533 -115 b 472 -85 488 -115 472 -106 b 533 -4 472 -57 500 -33 b 744 215 647 29 715 108 l 524 215 b 397 144 510 181 474 144 z m 389 581 b 533 432 474 581 533 531 l 244 432 b 389 581 244 531 304 581 z "},"f":{"ha":485,"x_min":0,"x_max":0,"o":"m 467 825 l 467 992 b 329 1006 426 1000 392 1006 b 121 760 167 1006 121 919 l 121 711 l 15 711 l 15 544 l 121 544 l 121 0 l 343 0 l 343 544 l 467 544 l 467 711 l 343 711 l 343 742 b 467 825 343 825 372 825 z "},"g":{"ha":794,"x_min":0,"x_max":0,"o":"m 518 711 l 518 640 l 515 640 b 321 733 488 678 425 733 b 22 383 139 733 22 589 b 321 33 22 178 139 33 b 515 126 425 33 488 89 l 518 126 l 518 85 b 385 -86 518 -33 485 -86 b 258 -15 307 -86 272 -54 l 36 -15 b 390 -246 61 -129 165 -246 b 740 69 606 -246 740 -165 l 740 711 z m 379 200 b 244 383 289 200 244 268 b 379 567 244 499 289 567 b 514 383 469 567 514 499 b 379 200 514 268 469 200 z "},"ğ":{"ha":794,"x_min":0,"x_max":0,"o":"m 368 797 b 590 1000 497 797 585 881 l 463 1000 b 368 933 458 960 428 933 b 274 1000 308 933 278 960 l 146 1000 b 368 797 150 876 242 797 z m 518 711 l 518 640 l 515 640 b 321 733 488 678 425 733 b 22 383 139 733 22 589 b 321 33 22 178 139 33 b 515 126 425 33 488 89 l 518 126 l 518 85 b 385 -86 518 -33 485 -86 b 258 -15 307 -86 272 -54 l 36 -15 b 390 -246 61 -129 165 -246 b 740 69 606 -246 740 -165 l 740 711 z m 379 200 b 244 383 289 200 244 268 b 379 567 244 499 289 567 b 514 383 469 567 514 499 b 379 200 514 268 469 200 z "},"ģ":{"ha":794,"x_min":0,"x_max":0,"o":"m 367 790 b 451 879 421 790 451 826 b 349 960 451 932 410 974 b 440 1026 349 997 386 1019 l 440 1090 b 257 914 313 1078 257 1006 b 367 790 257 846 296 790 z m 518 711 l 518 640 l 515 640 b 321 733 488 678 425 733 b 22 383 139 733 22 589 b 321 33 22 178 139 33 b 515 126 425 33 488 89 l 518 126 l 518 85 b 385 -86 518 -33 485 -86 b 258 -15 307 -86 272 -54 l 36 -15 b 390 -246 61 -129 165 -246 b 740 69 606 -246 740 -165 l 740 711 z m 379 200 b 244 383 289 200 244 268 b 379 567 244 499 289 567 b 514 383 469 567 514 499 b 379 200 514 268 469 200 z "},"ġ":{"ha":794,"x_min":0,"x_max":0,"o":"m 368 797 b 474 903 436 797 474 846 b 368 1008 474 960 436 1008 b 261 903 300 1008 261 960 b 368 797 261 846 299 797 z m 518 711 l 518 640 l 515 640 b 321 733 488 678 425 733 b 22 383 139 733 22 589 b 321 33 22 178 139 33 b 515 126 425 33 488 89 l 518 126 l 518 85 b 385 -86 518 -33 485 -86 b 258 -15 307 -86 272 -54 l 36 -15 b 390 -246 61 -129 165 -246 b 740 69 606 -246 740 -165 l 740 711 z m 379 200 b 244 383 289 200 244 268 b 379 567 244 499 289 567 b 514 383 469 567 514 499 b 379 200 514 268 469 200 z "},"h":{"ha":792,"x_min":0,"x_max":0,"o":"m 500 733 b 279 608 386 733 317 674 l 276 608 l 276 993 l 54 993 l 54 0 l 276 0 l 276 411 b 406 553 276 510 335 553 b 521 410 486 553 521 517 l 521 0 l 743 0 l 743 481 b 500 733 743 643 650 733 z "},"ħ":{"ha":790,"x_min":0,"x_max":0,"o":"m 499 733 b 278 608 385 733 315 674 l 275 608 l 275 799 l 478 799 l 478 924 l 275 924 l 275 993 l 53 993 l 53 924 l -17 924 l -17 799 l 53 799 l 53 0 l 275 0 l 275 411 b 404 553 275 510 333 553 b 519 410 485 553 519 517 l 519 0 l 742 0 l 742 481 b 499 733 742 643 649 733 z "},"i":{"ha":331,"x_min":0,"x_max":0,"o":"m 165 796 b 276 894 228 796 276 829 b 165 993 276 958 228 993 b 54 894 103 993 54 958 b 165 796 54 829 103 796 z m 54 711 l 54 0 l 276 0 l 276 711 z "},"ı":{"ha":306,"x_min":0,"x_max":0,"o":"m 42 711 l 42 0 l 264 0 l 264 711 z "},"í":{"ha":306,"x_min":0,"x_max":0,"o":"m 126 1000 l 67 806 l 233 806 l 376 1000 z m 42 711 l 42 0 l 264 0 l 264 711 z "},"î":{"ha":306,"x_min":0,"x_max":0,"o":"m -104 806 l 89 806 l 151 901 l 154 901 l 217 806 l 410 806 l 261 1000 l 44 1000 z m 42 711 l 42 0 l 264 0 l 264 711 z "},"ï":{"ha":306,"x_min":0,"x_max":0,"o":"m -103 903 b 4 797 -103 846 -65 797 b 110 903 72 797 110 846 b 4 1008 110 960 72 1008 b -103 903 -64 1008 -103 960 z m 196 903 b 303 797 196 846 233 797 b 408 903 371 797 408 846 b 303 1008 408 960 371 1008 b 196 903 235 1008 196 960 z m 42 711 l 42 0 l 264 0 l 264 711 z "},"ì":{"ha":306,"x_min":0,"x_max":0,"o":"m 178 1000 l -72 1000 l 71 806 l 238 806 z m 42 711 l 42 0 l 264 0 l 264 711 z "},"ī":{"ha":306,"x_min":0,"x_max":0,"o":"m -46 972 l -46 833 l 351 833 l 351 972 z m 42 711 l 42 0 l 264 0 l 264 711 z "},"į":{"ha":306,"x_min":0,"x_max":0,"o":"m 153 797 b 258 903 221 797 258 846 b 153 1008 258 960 221 1008 b 46 903 85 1008 46 960 b 153 797 46 846 83 797 z m 240 -115 b 197 -85 213 -115 197 -106 b 264 0 197 -56 228 -31 l 264 711 l 42 711 l 42 0 l 124 0 b 26 -129 79 -21 26 -64 b 185 -246 26 -204 81 -246 b 297 -231 224 -246 265 -239 l 297 -106 b 240 -115 278 -111 258 -115 z "},"j":{"ha":335,"x_min":0,"x_max":0,"o":"m 169 796 b 281 894 232 796 281 829 b 169 993 281 958 232 993 b 58 894 107 993 58 958 b 169 796 58 829 107 796 z m 58 711 l 58 17 b -65 -64 58 -64 29 -64 l -65 -231 b 72 -246 -25 -239 10 -246 b 281 0 235 -246 281 -160 l 281 711 z "},"k":{"ha":778,"x_min":0,"x_max":0,"o":"m 54 993 l 54 0 l 276 0 l 276 210 l 347 283 l 515 0 l 779 0 l 499 444 l 750 711 l 485 711 l 276 471 l 276 993 z "},"ķ":{"ha":778,"x_min":0,"x_max":0,"o":"m 54 993 l 54 0 l 276 0 l 276 210 l 347 283 l 515 0 l 779 0 l 499 444 l 750 711 l 485 711 l 276 471 l 276 993 z m 394 -235 b 303 -301 394 -272 357 -294 l 303 -365 b 486 -189 431 -353 486 -281 b 388 -65 486 -121 454 -65 b 292 -157 333 -65 292 -107 b 394 -235 292 -207 333 -249 z "},"l":{"ha":333,"x_min":0,"x_max":0,"o":"m 56 993 l 56 0 l 278 0 l 278 993 z "},"ĺ":{"ha":333,"x_min":0,"x_max":0,"o":"m 147 1264 l 88 1069 l 254 1069 l 397 1264 z m 56 993 l 56 0 l 278 0 l 278 993 z "},"ľ":{"ha":333,"x_min":0,"x_max":0,"o":"m 453 831 b 361 764 453 793 415 771 l 361 700 b 544 876 489 713 544 785 b 446 1000 544 944 513 1000 b 350 908 392 1000 350 958 b 453 831 350 858 392 817 z m 56 993 l 56 0 l 278 0 l 278 993 z "},"ļ":{"ha":333,"x_min":0,"x_max":0,"o":"m 56 993 l 56 0 l 278 0 l 278 993 z m 172 -235 b 81 -301 172 -272 135 -294 l 81 -365 b 264 -189 208 -353 264 -281 b 165 -65 264 -121 232 -65 b 69 -157 111 -65 69 -107 b 172 -235 69 -207 111 -249 z "},"ł":{"ha":383,"x_min":0,"x_max":0,"o":"m 389 754 l 307 693 l 307 993 l 85 993 l 85 531 l 3 469 l 3 307 l 85 368 l 85 0 l 307 0 l 307 531 l 389 592 z "},"m":{"ha":1206,"x_min":0,"x_max":0,"o":"m 929 733 b 690 608 814 733 751 679 l 688 608 b 501 733 660 682 594 733 b 279 608 394 733 317 674 l 276 608 l 276 711 l 54 711 l 54 0 l 276 0 l 276 411 b 392 553 276 510 322 553 b 493 410 471 553 493 517 l 493 0 l 715 0 l 715 411 b 831 553 715 510 760 553 b 932 410 910 553 932 517 l 932 0 l 1157 0 l 1157 481 b 929 733 1157 643 1072 733 z "},"n":{"ha":792,"x_min":0,"x_max":0,"o":"m 513 733 b 279 608 386 733 317 674 l 276 608 l 276 711 l 54 711 l 54 0 l 276 0 l 276 411 b 410 553 276 510 325 553 b 521 410 483 553 521 517 l 521 0 l 743 0 l 743 481 b 513 733 743 643 650 733 z "},"ń":{"ha":792,"x_min":0,"x_max":0,"o":"m 664 1000 l 414 1000 l 354 806 l 521 806 z m 513 733 b 279 608 386 733 317 674 l 276 608 l 276 711 l 54 711 l 54 0 l 276 0 l 276 411 b 410 553 276 510 325 553 b 521 410 483 553 521 517 l 521 0 l 743 0 l 743 481 b 513 733 743 643 650 733 z "},"ň":{"ha":792,"x_min":0,"x_max":0,"o":"m 549 806 l 697 1000 l 504 1000 l 442 904 l 439 904 l 376 1000 l 183 1000 l 332 806 z m 513 733 b 279 608 386 733 317 674 l 276 608 l 276 711 l 54 711 l 54 0 l 276 0 l 276 411 b 410 553 276 510 325 553 b 521 410 483 553 521 517 l 521 0 l 743 0 l 743 481 b 513 733 743 643 650 733 z "},"ņ":{"ha":792,"x_min":0,"x_max":0,"o":"m 513 733 b 279 608 386 733 317 674 l 276 608 l 276 711 l 54 711 l 54 0 l 276 0 l 276 411 b 410 553 276 510 325 553 b 521 410 483 553 521 517 l 521 0 l 743 0 l 743 481 b 513 733 743 643 650 733 z m 397 -65 b 301 -157 343 -65 301 -107 b 404 -235 301 -207 343 -249 b 313 -301 404 -272 367 -294 l 313 -365 b 496 -189 440 -353 496 -281 b 397 -65 496 -121 464 -65 z "},"ŋ":{"ha":792,"x_min":0,"x_max":0,"o":"m 513 733 b 279 608 386 733 317 674 l 276 608 l 276 711 l 54 711 l 54 0 l 276 0 l 276 411 b 410 553 276 510 325 553 b 521 410 483 553 521 517 l 521 0 b 397 -81 521 -81 492 -81 l 397 -247 b 535 -262 438 -256 472 -262 b 743 -17 697 -262 743 -176 l 743 481 b 513 733 743 643 650 733 z "},"ñ":{"ha":792,"x_min":0,"x_max":0,"o":"m 371 876 b 549 825 424 876 485 825 b 671 1013 628 825 671 876 l 556 1013 b 510 960 556 986 547 960 b 332 1013 457 960 396 1013 b 210 825 253 1013 210 960 l 325 825 b 371 876 325 850 333 876 z m 513 733 b 279 608 386 733 317 674 l 276 608 l 276 711 l 54 711 l 54 0 l 276 0 l 276 411 b 410 553 276 510 325 553 b 521 410 483 553 521 517 l 521 0 l 743 0 l 743 481 b 513 733 743 643 650 733 z "},"o":{"ha":804,"x_min":0,"x_max":0,"o":"m 403 -22 b 22 356 165 -22 22 135 b 403 733 22 576 165 733 b 782 356 639 733 782 576 b 403 -22 782 135 639 -22 z m 403 144 b 560 356 500 144 560 218 b 403 567 560 493 500 567 b 244 356 304 567 244 493 b 403 144 244 218 304 144 z "},"ó":{"ha":804,"x_min":0,"x_max":0,"o":"m 376 1000 l 317 806 l 483 806 l 626 1000 z m 403 -22 b 22 356 165 -22 22 135 b 403 733 22 576 165 733 b 782 356 639 733 782 576 b 403 -22 782 135 639 -22 z m 403 144 b 560 356 500 144 560 218 b 403 567 560 493 500 567 b 244 356 304 567 244 493 b 403 144 244 218 304 144 z "},"ô":{"ha":804,"x_min":0,"x_max":0,"o":"m 146 806 l 339 806 l 401 901 l 404 901 l 467 806 l 660 806 l 511 1000 l 294 1000 z m 403 -22 b 22 356 165 -22 22 135 b 403 733 22 576 165 733 b 782 356 639 733 782 576 b 403 -22 782 135 639 -22 z m 403 144 b 560 356 500 144 560 218 b 403 567 560 493 500 567 b 244 356 304 567 244 493 b 403 144 244 218 304 144 z "},"ö":{"ha":804,"x_min":0,"x_max":0,"o":"m 147 903 b 254 797 147 846 185 797 b 360 903 322 797 360 846 b 254 1008 360 960 322 1008 b 147 903 186 1008 147 960 z m 446 903 b 553 797 446 846 483 797 b 658 903 621 797 658 846 b 553 1008 658 960 621 1008 b 446 903 485 1008 446 960 z m 403 -22 b 22 356 165 -22 22 135 b 403 733 22 576 165 733 b 782 356 639 733 782 576 b 403 -22 782 135 639 -22 z m 403 144 b 560 356 500 144 560 218 b 403 567 560 493 500 567 b 244 356 304 567 244 493 b 403 144 244 218 304 144 z "},"ò":{"ha":804,"x_min":0,"x_max":0,"o":"m 428 1000 l 178 1000 l 321 806 l 488 806 z m 403 -22 b 22 356 165 -22 22 135 b 403 733 22 576 165 733 b 782 356 639 733 782 576 b 403 -22 782 135 639 -22 z m 403 144 b 560 356 500 144 560 218 b 403 567 560 493 500 567 b 244 356 304 567 244 493 b 403 144 244 218 304 144 z "},"ő":{"ha":804,"x_min":0,"x_max":0,"o":"m 219 1000 l 160 806 l 326 806 l 469 1000 z m 525 1000 l 465 806 l 632 806 l 775 1000 z m 403 -22 b 22 356 165 -22 22 135 b 403 733 22 576 165 733 b 782 356 639 733 782 576 b 403 -22 782 135 639 -22 z m 403 144 b 560 356 500 144 560 218 b 403 567 560 493 500 567 b 244 356 304 567 244 493 b 403 144 244 218 304 144 z "},"ō":{"ha":804,"x_min":0,"x_max":0,"o":"m 204 972 l 204 833 l 601 833 l 601 972 z m 403 -22 b 22 356 165 -22 22 135 b 403 733 22 576 165 733 b 782 356 639 733 782 576 b 403 -22 782 135 639 -22 z m 403 144 b 560 356 500 144 560 218 b 403 567 560 493 500 567 b 244 356 304 567 244 493 b 403 144 244 218 304 144 z "},"ø":{"ha":804,"x_min":0,"x_max":0,"o":"m 706 599 l 776 669 l 717 728 l 647 658 b 403 733 585 706 501 733 b 22 356 165 733 22 576 b 100 110 22 258 50 175 l 32 42 l 90 -18 l 160 51 b 403 -22 222 4 304 -22 b 782 356 639 -22 782 135 b 706 599 782 451 756 535 z m 244 356 b 403 567 244 493 304 567 b 511 521 447 567 483 551 l 256 265 b 244 356 249 292 244 321 z m 403 144 b 296 188 358 144 322 160 l 550 443 b 560 356 557 417 560 388 b 403 144 560 218 500 144 z "},"õ":{"ha":804,"x_min":0,"x_max":0,"o":"m 172 825 l 288 825 b 333 876 288 850 296 876 b 511 825 386 876 447 825 b 633 1013 590 825 633 876 l 518 1013 b 472 960 518 986 510 960 b 294 1013 419 960 358 1013 b 172 825 215 1013 172 960 z m 403 -22 b 22 356 165 -22 22 135 b 403 733 22 576 165 733 b 782 356 639 733 782 576 b 403 -22 782 135 639 -22 z m 403 144 b 560 356 500 144 560 218 b 403 567 560 493 500 567 b 244 356 304 567 244 493 b 403 144 244 218 304 144 z "},"œ":{"ha":1354,"x_min":0,"x_max":0,"o":"m 972 144 b 819 297 893 144 819 197 l 1331 297 b 964 733 1331 556 1207 733 b 689 618 847 733 753 690 b 403 733 624 690 526 733 b 22 356 165 733 22 576 b 403 -22 22 135 165 -22 b 689 93 526 -22 624 21 b 976 -22 754 21 853 -22 b 1319 215 1169 -22 1281 72 l 1099 215 b 972 144 1085 181 1049 144 z m 964 581 b 1108 432 1049 581 1108 531 l 819 432 b 964 581 819 531 879 581 z m 403 144 b 244 356 304 144 244 218 b 403 567 244 493 304 567 b 560 356 500 567 560 493 b 403 144 560 218 500 144 z "},"p":{"ha":822,"x_min":0,"x_max":0,"o":"m 485 733 b 279 640 382 733 307 678 l 276 640 l 276 711 l 54 711 l 54 -246 l 276 -246 l 276 71 l 279 71 b 485 -22 307 33 382 -22 b 794 356 674 -22 794 122 b 485 733 794 589 674 733 z m 426 144 b 281 356 336 144 281 217 b 426 567 281 494 336 567 b 572 356 517 567 572 494 b 426 144 572 217 517 144 z "},"þ":{"ha":817,"x_min":0,"x_max":0,"o":"m 485 733 b 279 613 368 733 307 678 l 276 613 l 276 993 l 54 993 l 54 -246 l 276 -246 l 276 99 l 279 99 b 485 -22 307 33 368 -22 b 794 356 674 -22 794 122 b 485 733 794 589 674 733 z m 426 144 b 281 356 336 144 281 217 b 426 567 281 494 336 567 b 572 356 517 567 572 494 b 426 144 572 217 517 144 z "},"q":{"ha":822,"x_min":0,"x_max":0,"o":"m 546 711 l 546 640 l 543 640 b 338 733 515 678 440 733 b 28 356 149 733 28 589 b 338 -22 28 122 149 -22 b 543 71 440 -22 515 33 l 546 71 l 546 -246 l 768 -246 l 768 711 z m 396 144 b 250 356 306 144 250 217 b 396 567 250 494 306 567 b 542 356 486 567 542 494 b 396 144 542 217 486 144 z "},"r":{"ha":532,"x_min":0,"x_max":0,"o":"m 453 724 b 279 594 375 724 314 674 l 276 594 l 276 711 l 54 711 l 54 0 l 276 0 l 276 331 b 511 524 276 482 397 544 l 514 524 l 514 718 b 453 724 489 724 472 724 z "},"ŕ":{"ha":532,"x_min":0,"x_max":0,"o":"m 508 1000 l 258 1000 l 199 806 l 365 806 z m 453 724 b 279 594 375 724 314 674 l 276 594 l 276 711 l 54 711 l 54 0 l 276 0 l 276 331 b 511 524 276 482 397 544 l 514 524 l 514 718 b 453 724 489 724 472 724 z "},"ř":{"ha":532,"x_min":0,"x_max":0,"o":"m 393 806 l 542 1000 l 349 1000 l 286 904 l 283 904 l 221 1000 l 28 1000 l 176 806 z m 279 594 l 276 594 l 276 711 l 54 711 l 54 0 l 276 0 l 276 331 b 511 524 276 482 397 544 l 514 524 l 514 718 b 453 724 489 724 472 724 b 279 594 375 724 314 674 z "},"ŗ":{"ha":532,"x_min":0,"x_max":0,"o":"m 453 724 b 279 594 375 724 314 674 l 276 594 l 276 711 l 54 711 l 54 0 l 276 0 l 276 331 b 511 524 276 482 397 544 l 514 524 l 514 718 b 453 724 489 724 472 724 z m 172 -65 b 76 -157 118 -65 76 -107 b 179 -235 76 -207 118 -249 b 88 -301 179 -272 142 -294 l 88 -365 b 271 -189 215 -353 271 -281 b 172 -65 271 -121 239 -65 z "},"s":{"ha":700,"x_min":0,"x_max":0,"o":"m 401 449 b 247 524 292 472 247 474 b 342 581 247 558 279 581 b 451 493 414 581 444 550 l 660 493 b 336 733 653 618 564 733 b 25 506 136 733 25 635 b 279 286 25 357 158 313 b 458 192 392 261 458 253 b 361 131 458 151 424 131 b 219 236 274 131 226 165 l 11 236 b 369 -22 18 92 115 -22 b 681 210 567 -22 681 60 b 401 449 681 371 542 418 z "},"ś":{"ha":700,"x_min":0,"x_max":0,"o":"m 319 1000 l 260 806 l 426 806 l 569 1000 z m 401 449 b 247 524 292 472 247 474 b 342 581 247 558 279 581 b 451 493 414 581 444 550 l 660 493 b 336 733 653 618 564 733 b 25 506 136 733 25 635 b 279 286 25 357 158 313 b 458 192 392 261 458 253 b 361 131 458 151 424 131 b 219 236 274 131 226 165 l 11 236 b 369 -22 18 92 115 -22 b 681 210 567 -22 681 60 b 401 449 681 371 542 418 z "},"š":{"ha":700,"x_min":0,"x_max":0,"o":"m 89 1000 l 238 806 l 454 806 l 603 1000 l 410 1000 l 347 904 l 344 904 l 282 1000 z m 401 449 b 247 524 292 472 247 474 b 342 581 247 558 279 581 b 451 493 414 581 444 550 l 660 493 b 336 733 653 618 564 733 b 25 506 136 733 25 635 b 279 286 25 357 158 313 b 458 192 392 261 458 253 b 361 131 458 151 424 131 b 219 236 274 131 226 165 l 11 236 b 369 -22 18 92 115 -22 b 681 210 567 -22 681 60 b 401 449 681 371 542 418 z "},"ş":{"ha":700,"x_min":0,"x_max":0,"o":"m 406 -21 b 681 210 581 -11 681 69 b 401 449 681 371 542 418 b 247 524 292 472 247 474 b 342 581 247 558 279 581 b 451 493 414 581 444 550 l 660 493 b 336 733 653 618 564 733 b 25 506 136 733 25 635 b 279 286 25 357 158 313 b 458 192 392 261 458 253 b 361 131 458 151 424 131 b 219 236 274 131 226 165 l 11 236 b 325 -21 18 100 104 -8 l 251 -106 l 275 -139 b 324 -129 290 -133 306 -129 b 376 -167 353 -129 376 -140 b 315 -207 376 -196 340 -207 b 219 -186 282 -207 246 -199 l 178 -235 b 333 -275 217 -258 268 -275 b 515 -168 432 -275 515 -235 b 360 -75 515 -96 439 -67 l 360 -72 z "},"ș":{"ha":700,"x_min":0,"x_max":0,"o":"m 401 449 b 247 524 292 472 247 474 b 342 581 247 558 279 581 b 451 493 414 581 444 550 l 660 493 b 336 733 653 618 564 733 b 25 506 136 733 25 635 b 279 286 25 357 158 313 b 458 192 392 261 458 253 b 361 131 458 151 424 131 b 219 236 274 131 226 165 l 11 236 b 369 -22 18 92 115 -22 b 681 210 567 -22 681 60 b 401 449 681 371 542 418 z m 375 -235 b 283 -301 375 -272 338 -294 l 283 -365 b 467 -189 411 -353 467 -281 b 368 -65 467 -121 435 -65 b 272 -157 314 -65 272 -107 b 375 -235 272 -207 314 -249 z "},"ß":{"ha":800,"x_min":0,"x_max":0,"o":"m 276 707 b 393 849 276 811 322 849 b 500 735 460 849 500 806 b 375 615 500 663 450 615 l 346 615 l 346 476 l 381 476 b 556 311 506 476 556 404 b 346 167 556 221 519 135 l 346 0 b 482 -22 389 -15 426 -22 b 778 269 639 -22 778 81 b 597 547 778 388 715 510 l 597 550 b 722 746 661 576 722 628 b 393 1015 722 888 586 1015 b 54 651 161 1015 54 863 l 54 0 l 276 0 z "},"t":{"ha":488,"x_min":0,"x_max":0,"o":"m 460 544 l 460 711 l 336 711 l 336 910 l 114 910 l 114 711 l 15 711 l 15 544 l 114 544 l 114 233 b 322 -12 114 74 160 -12 b 460 3 385 -12 419 -6 l 460 169 b 336 250 365 169 336 169 l 336 544 z "},"ŧ":{"ha":488,"x_min":0,"x_max":0,"o":"m 460 544 l 460 711 l 336 711 l 336 910 l 114 910 l 114 711 l 15 711 l 15 544 l 114 544 l 114 450 l 15 450 l 15 325 l 114 325 l 114 233 b 322 -12 114 74 160 -12 b 460 3 385 -12 419 -6 l 460 169 b 336 250 365 169 336 169 l 336 325 l 460 325 l 460 450 l 336 450 l 336 544 z "},"ť":{"ha":488,"x_min":0,"x_max":0,"o":"m 481 1069 b 385 978 426 1069 385 1028 b 488 900 385 928 426 886 b 396 833 488 863 450 840 l 396 769 b 579 946 524 782 579 854 b 481 1069 579 1014 547 1069 z m 336 910 l 114 910 l 114 711 l 15 711 l 15 544 l 114 544 l 114 233 b 322 -12 114 74 160 -12 b 460 3 385 -12 419 -6 l 460 169 b 336 250 365 169 336 169 l 336 544 l 460 544 l 460 711 l 336 711 z "},"ţ":{"ha":488,"x_min":0,"x_max":0,"o":"m 311 -61 l 311 -58 l 353 -12 b 460 3 397 -10 426 -4 l 460 169 b 336 250 365 169 336 169 l 336 544 l 460 544 l 460 711 l 336 711 l 336 910 l 114 910 l 114 711 l 15 711 l 15 544 l 114 544 l 114 233 b 274 -10 114 90 150 7 l 203 -92 l 226 -125 b 275 -115 242 -119 257 -115 b 328 -153 304 -115 328 -126 b 267 -193 328 -182 292 -193 b 171 -172 233 -193 197 -185 l 129 -221 b 285 -261 168 -244 219 -261 b 467 -154 383 -261 467 -221 b 311 -61 467 -82 390 -53 z "},"ț":{"ha":488,"x_min":0,"x_max":0,"o":"m 460 544 l 460 711 l 336 711 l 336 910 l 114 910 l 114 711 l 15 711 l 15 544 l 114 544 l 114 233 b 322 -12 114 74 160 -12 b 460 3 385 -12 419 -6 l 460 169 b 336 250 365 169 336 169 l 336 544 z m 319 -51 b 224 -143 265 -51 224 -93 b 326 -221 224 -193 265 -235 b 235 -287 326 -258 289 -281 l 235 -351 b 418 -175 363 -339 418 -267 b 319 -51 418 -107 386 -51 z "},"u":{"ha":792,"x_min":0,"x_max":0,"o":"m 515 711 l 515 300 b 382 158 515 201 467 158 b 271 301 308 158 271 194 l 271 711 l 49 711 l 49 231 b 279 -22 49 68 142 -22 b 513 103 406 -22 475 38 l 515 103 l 515 0 l 738 0 l 738 711 z "},"ú":{"ha":792,"x_min":0,"x_max":0,"o":"m 617 1000 l 367 1000 l 307 806 l 474 806 z m 515 711 l 515 300 b 382 158 515 201 467 158 b 271 301 308 158 271 194 l 271 711 l 49 711 l 49 231 b 279 -22 49 68 142 -22 b 513 103 406 -22 475 38 l 515 103 l 515 0 l 738 0 l 738 711 z "},"û":{"ha":792,"x_min":0,"x_max":0,"o":"m 392 901 l 394 901 l 457 806 l 650 806 l 501 1000 l 285 1000 l 136 806 l 329 806 z m 515 711 l 515 300 b 382 158 515 201 467 158 b 271 301 308 158 271 194 l 271 711 l 49 711 l 49 231 b 279 -22 49 68 142 -22 b 513 103 406 -22 475 38 l 515 103 l 515 0 l 738 0 l 738 711 z "},"ü":{"ha":792,"x_min":0,"x_max":0,"o":"m 244 797 b 350 903 313 797 350 846 b 244 1008 350 960 313 1008 b 138 903 176 1008 138 960 b 244 797 138 846 175 797 z m 543 797 b 649 903 611 797 649 846 b 543 1008 649 960 611 1008 b 436 903 475 1008 436 960 b 543 797 436 846 474 797 z m 515 711 l 515 300 b 382 158 515 201 467 158 b 271 301 308 158 271 194 l 271 711 l 49 711 l 49 231 b 279 -22 49 68 142 -22 b 513 103 406 -22 475 38 l 515 103 l 515 0 l 738 0 l 738 711 z "},"ù":{"ha":792,"x_min":0,"x_max":0,"o":"m 478 806 l 418 1000 l 168 1000 l 311 806 z m 515 711 l 515 300 b 382 158 515 201 467 158 b 271 301 308 158 271 194 l 271 711 l 49 711 l 49 231 b 279 -22 49 68 142 -22 b 513 103 406 -22 475 38 l 515 103 l 515 0 l 738 0 l 738 711 z "},"ű":{"ha":792,"x_min":0,"x_max":0,"o":"m 460 1000 l 210 1000 l 150 806 l 317 806 z m 622 806 l 765 1000 l 515 1000 l 456 806 z m 515 300 b 382 158 515 201 467 158 b 271 301 308 158 271 194 l 271 711 l 49 711 l 49 231 b 279 -22 49 68 142 -22 b 513 103 406 -22 475 38 l 515 103 l 515 0 l 738 0 l 738 711 l 515 711 z "},"ū":{"ha":792,"x_min":0,"x_max":0,"o":"m 592 972 l 194 972 l 194 833 l 592 833 z m 515 711 l 515 300 b 382 158 515 201 467 158 b 271 301 308 158 271 194 l 271 711 l 49 711 l 49 231 b 279 -22 49 68 142 -22 b 513 103 406 -22 475 38 l 515 103 l 515 0 l 738 0 l 738 711 z "},"ų":{"ha":792,"x_min":0,"x_max":0,"o":"m 714 -115 b 671 -85 686 -115 671 -106 b 738 0 671 -56 701 -31 l 738 711 l 515 711 l 515 300 b 382 158 515 201 467 158 b 271 301 308 158 271 194 l 271 711 l 49 711 l 49 231 b 279 -22 49 68 142 -22 b 513 103 406 -22 475 38 l 515 103 l 515 0 l 597 0 b 500 -129 553 -21 500 -64 b 658 -246 500 -204 554 -246 b 771 -231 697 -246 739 -239 l 771 -106 b 714 -115 751 -111 732 -115 z "},"ů":{"ha":792,"x_min":0,"x_max":0,"o":"m 393 790 b 535 929 471 790 535 843 b 393 1068 535 1014 471 1068 b 251 929 317 1068 251 1014 b 393 790 251 843 317 790 z m 393 992 b 451 929 428 992 451 969 b 393 867 451 889 428 867 b 336 929 360 867 336 889 b 393 992 336 969 360 992 z m 515 711 l 515 300 b 382 158 515 201 467 158 b 271 301 308 158 271 194 l 271 711 l 49 711 l 49 231 b 279 -22 49 68 142 -22 b 513 103 406 -22 475 38 l 515 103 l 515 0 l 738 0 l 738 711 z "},"v":{"ha":728,"x_min":0,"x_max":0,"o":"m -4 711 l 242 0 l 486 0 l 732 711 l 510 711 l 365 247 l 363 247 l 218 711 z "},"w":{"ha":1088,"x_min":0,"x_max":0,"o":"m -3 711 l 196 0 l 404 0 l 542 450 l 544 450 l 682 0 l 890 0 l 1089 711 l 867 711 l 760 278 l 757 278 l 640 711 l 446 711 l 329 278 l 326 278 l 219 711 z "},"ẃ":{"ha":1088,"x_min":0,"x_max":0,"o":"m 517 1000 l 457 806 l 624 806 l 767 1000 z m -3 711 l 196 0 l 404 0 l 542 450 l 544 450 l 682 0 l 890 0 l 1089 711 l 867 711 l 760 278 l 757 278 l 640 711 l 446 711 l 329 278 l 326 278 l 219 711 z "},"ŵ":{"ha":1088,"x_min":0,"x_max":0,"o":"m 286 806 l 479 806 l 542 901 l 544 901 l 607 806 l 800 806 l 651 1000 l 435 1000 z m -3 711 l 196 0 l 404 0 l 542 450 l 544 450 l 682 0 l 890 0 l 1089 711 l 867 711 l 760 278 l 757 278 l 640 711 l 446 711 l 329 278 l 326 278 l 219 711 z "},"ẅ":{"ha":1088,"x_min":0,"x_max":0,"o":"m 288 903 b 394 797 288 846 325 797 b 500 903 463 797 500 846 b 394 1008 500 960 463 1008 b 288 903 326 1008 288 960 z m 586 903 b 693 797 586 846 624 797 b 799 903 761 797 799 846 b 693 1008 799 960 761 1008 b 586 903 625 1008 586 960 z m -3 711 l 196 0 l 404 0 l 542 450 l 544 450 l 682 0 l 890 0 l 1089 711 l 867 711 l 760 278 l 757 278 l 640 711 l 446 711 l 329 278 l 326 278 l 219 711 z "},"ẁ":{"ha":1088,"x_min":0,"x_max":0,"o":"m 568 1000 l 318 1000 l 461 806 l 628 806 z m -3 711 l 196 0 l 404 0 l 542 450 l 544 450 l 682 0 l 890 0 l 1089 711 l 867 711 l 760 278 l 757 278 l 640 711 l 446 711 l 329 278 l 326 278 l 219 711 z "},"x":{"ha":778,"x_min":0,"x_max":0,"o":"m 38 711 l 254 363 l 10 0 l 260 0 l 388 219 l 390 219 l 518 0 l 768 0 l 524 363 l 740 711 l 504 711 l 390 506 l 388 506 l 274 711 z "},"y":{"ha":735,"x_min":0,"x_max":0,"o":"m 739 711 l 517 711 l 382 244 l 379 244 l 218 711 l -4 711 l 228 103 b 233 -36 250 40 254 -4 b 99 -65 210 -72 160 -79 l 96 -65 l 96 -232 b 219 -246 142 -242 182 -246 b 497 -14 369 -246 436 -196 z "},"ý":{"ha":735,"x_min":0,"x_max":0,"o":"m 342 1000 l 282 806 l 449 806 l 592 1000 z m 739 711 l 517 711 l 382 244 l 379 244 l 218 711 l -4 711 l 228 103 b 233 -36 250 40 254 -4 b 99 -65 210 -72 160 -79 l 96 -65 l 96 -232 b 219 -246 142 -242 182 -246 b 497 -14 369 -246 436 -196 z "},"ŷ":{"ha":735,"x_min":0,"x_max":0,"o":"m 111 806 l 304 806 l 367 901 l 369 901 l 432 806 l 625 806 l 476 1000 l 260 1000 z m 739 711 l 517 711 l 382 244 l 379 244 l 218 711 l -4 711 l 228 103 b 233 -36 250 40 254 -4 b 99 -65 210 -72 160 -79 l 96 -65 l 96 -232 b 219 -246 142 -242 182 -246 b 497 -14 369 -246 436 -196 z "},"ÿ":{"ha":735,"x_min":0,"x_max":0,"o":"m 113 903 b 219 797 113 846 150 797 b 325 903 288 797 325 846 b 219 1008 325 960 288 1008 b 113 903 151 1008 113 960 z m 411 903 b 518 797 411 846 449 797 b 624 903 586 797 624 846 b 518 1008 624 960 586 1008 b 411 903 450 1008 411 960 z m 739 711 l 517 711 l 382 244 l 379 244 l 218 711 l -4 711 l 228 103 b 233 -36 250 40 254 -4 b 99 -65 210 -72 160 -79 l 96 -65 l 96 -232 b 219 -246 142 -242 182 -246 b 497 -14 369 -246 436 -196 z "},"ỳ":{"ha":735,"x_min":0,"x_max":0,"o":"m 393 1000 l 143 1000 l 286 806 l 453 806 z m 739 711 l 517 711 l 382 244 l 379 244 l 218 711 l -4 711 l 228 103 b 233 -36 250 40 254 -4 b 99 -65 210 -72 160 -79 l 96 -65 l 96 -232 b 219 -246 142 -242 182 -246 b 497 -14 369 -246 436 -196 z "},"z":{"ha":701,"x_min":0,"x_max":0,"o":"m 33 160 l 33 0 l 671 0 l 671 167 l 311 167 l 311 169 l 657 551 l 657 711 l 61 711 l 61 544 l 379 544 l 379 542 z "},"ź":{"ha":701,"x_min":0,"x_max":0,"o":"m 333 1000 l 274 806 l 440 806 l 583 1000 z m 33 160 l 33 0 l 671 0 l 671 167 l 311 167 l 311 169 l 657 551 l 657 711 l 61 711 l 61 544 l 379 544 l 379 542 z "},"ž":{"ha":701,"x_min":0,"x_max":0,"o":"m 103 1000 l 251 806 l 468 806 l 617 1000 l 424 1000 l 361 904 l 358 904 l 296 1000 z m 33 160 l 33 0 l 671 0 l 671 167 l 311 167 l 311 169 l 657 551 l 657 711 l 61 711 l 61 544 l 379 544 l 379 542 z "},"ż":{"ha":701,"x_min":0,"x_max":0,"o":"m 253 903 b 360 797 253 846 290 797 b 465 903 428 797 465 846 b 360 1008 465 960 428 1008 b 253 903 292 1008 253 960 z m 33 160 l 33 0 l 671 0 l 671 167 l 311 167 l 311 169 l 657 551 l 657 711 l 61 711 l 61 544 l 379 544 l 379 542 z "},"⁄":{"ha":390,"x_min":0,"x_max":0,"o":"m 489 993 l -251 0 l -99 0 l 642 993 z "},"*":{"ha":606,"x_min":0,"x_max":0,"o":"m 564 753 l 521 885 l 374 824 l 374 993 l 235 993 l 235 824 l 86 885 l 43 753 l 197 713 l 99 579 l 211 497 l 303 638 l 394 497 l 507 579 l 408 713 z "},"\\":{"ha":607,"x_min":0,"x_max":0,"o":"m 17 993 l 401 0 l 582 0 l 197 993 z "},"·":{"ha":325,"x_min":0,"x_max":0,"o":"m 163 313 b 281 431 228 313 281 358 b 163 549 281 501 228 549 b 44 431 96 549 44 501 b 163 313 44 358 96 313 z "},"•":{"ha":519,"x_min":0,"x_max":0,"o":"m 260 236 b 468 444 388 236 468 331 b 260 653 468 558 388 653 b 51 444 132 653 51 558 b 260 236 51 331 132 236 z "},":":{"ha":333,"x_min":0,"x_max":0,"o":"m 167 418 b 285 536 232 418 285 464 b 167 654 285 607 232 654 b 49 536 100 654 49 607 b 167 418 49 464 100 418 z m 167 -12 b 285 106 232 -12 285 33 b 167 224 285 176 232 224 b 49 106 100 224 49 176 b 167 -12 49 33 100 -12 z "},",":{"ha":339,"x_min":0,"x_max":0,"o":"m 176 -12 b 58 -135 176 -69 128 -125 l 58 -232 b 294 57 206 -212 294 -104 b 168 224 294 160 253 224 b 44 106 99 224 44 181 b 176 -12 44 31 99 -12 z "},"…":{"ha":908,"x_min":0,"x_max":0,"o":"m 163 -12 b 281 106 228 -12 281 33 b 163 224 281 176 228 224 b 44 106 96 224 44 176 b 163 -12 44 33 96 -12 z m 454 -12 b 572 106 519 -12 572 33 b 454 224 572 176 519 224 b 336 106 388 224 336 176 b 454 -12 336 33 388 -12 z m 746 -12 b 864 106 811 -12 864 33 b 746 224 864 176 811 224 b 628 106 679 224 628 176 b 746 -12 628 33 679 -12 z "},"!":{"ha":367,"x_min":0,"x_max":0,"o":"m 65 993 l 65 776 l 128 325 l 239 325 l 301 776 l 301 993 z m 183 -12 b 301 106 249 -12 301 33 b 183 224 301 176 249 224 b 65 106 117 224 65 176 b 183 -12 65 33 117 -12 z "},"¡":{"ha":367,"x_min":0,"x_max":0,"o":"m 183 825 b 65 707 117 825 65 779 b 183 589 65 636 117 589 b 301 707 249 589 301 636 b 183 825 301 779 249 825 z m 65 -181 l 301 -181 l 301 36 l 239 488 l 128 488 l 65 36 z "},"#":{"ha":833,"x_min":0,"x_max":0,"o":"m 769 544 l 806 711 l 707 711 l 760 960 l 593 960 l 540 711 l 413 711 l 465 960 l 299 960 l 246 711 l 140 711 l 104 544 l 210 544 l 174 374 l 68 374 l 33 207 l 138 207 l 93 0 l 260 0 l 304 207 l 432 207 l 388 0 l 554 0 l 599 207 l 699 207 l 733 374 l 635 374 l 671 544 z m 468 374 l 340 374 l 376 544 l 504 544 z "},".":{"ha":325,"x_min":0,"x_max":0,"o":"m 163 -12 b 281 106 228 -12 281 33 b 163 224 281 176 228 224 b 44 106 96 224 44 176 b 163 -12 44 33 96 -12 z "},"?":{"ha":768,"x_min":0,"x_max":0,"o":"m 256 685 b 393 825 256 775 303 825 b 503 735 468 825 503 781 b 351 579 503 656 425 636 b 274 325 258 507 274 444 l 454 325 b 588 513 454 426 490 458 b 739 746 685 567 739 635 b 407 1015 739 907 600 1015 b 19 685 147 1015 19 868 z m 365 -12 b 483 106 431 -12 483 33 b 365 224 483 176 431 224 b 247 106 299 224 247 176 b 365 -12 247 33 299 -12 z "},"¿":{"ha":760,"x_min":0,"x_max":0,"o":"m 397 828 b 279 710 332 828 279 782 b 397 592 279 639 332 592 b 515 710 464 592 515 639 b 397 828 515 782 464 828 z m 507 131 b 369 -10 507 40 460 -10 b 260 81 294 -10 260 35 b 411 236 260 160 338 179 b 489 490 504 308 489 371 l 308 490 b 175 303 308 389 272 357 b 24 69 78 249 24 181 b 356 -200 24 -92 163 -200 b 743 131 615 -200 743 -53 z "},"\"":{"ha":586,"x_min":0,"x_max":0,"o":"m 57 993 l 85 619 l 224 619 l 251 993 z m 335 993 l 363 619 l 501 619 l 529 993 z "},"'":{"ha":308,"x_min":0,"x_max":0,"o":"m 57 993 l 85 619 l 224 619 l 251 993 z "},";":{"ha":347,"x_min":0,"x_max":0,"o":"m 174 418 b 292 536 239 418 292 464 b 174 654 292 607 239 654 b 56 536 107 654 56 607 b 174 418 56 464 107 418 z m 181 -12 b 63 -135 181 -69 132 -125 l 63 -232 b 299 57 210 -212 299 -104 b 172 224 299 160 257 224 b 49 106 103 224 49 181 b 181 -12 49 31 103 -12 z "},"/":{"ha":582,"x_min":0,"x_max":0,"o":"m 582 993 l 401 993 l 17 0 l 197 0 z "},"_":{"ha":597,"x_min":0,"x_max":0,"o":"m -4 -76 l -4 -267 l 601 -267 l 601 -76 z "},"{":{"ha":553,"x_min":0,"x_max":0,"o":"m 35 539 l 35 347 b 129 256 111 347 129 326 l 129 85 b 469 -190 129 -149 250 -190 l 507 -190 l 507 0 l 469 0 b 365 135 415 0 365 28 l 365 292 b 268 442 365 372 336 414 l 268 444 b 365 593 336 472 365 514 l 365 750 b 469 879 365 851 415 879 l 507 879 l 507 1069 l 469 1069 b 129 800 250 1069 129 1033 l 129 629 b 35 539 129 558 111 538 z "},"}":{"ha":554,"x_min":0,"x_max":0,"o":"m 519 539 b 425 629 443 538 425 558 l 425 800 b 85 1069 425 1033 304 1069 l 47 1069 l 47 879 l 85 879 b 189 750 139 879 189 851 l 189 593 b 286 444 189 514 218 472 l 286 442 b 189 292 218 414 189 372 l 189 135 b 85 0 189 28 139 0 l 47 0 l 47 -190 l 85 -190 b 425 85 304 -190 425 -149 l 425 256 b 519 347 425 326 443 347 z "},"[":{"ha":553,"x_min":0,"x_max":0,"o":"m 81 1069 l 81 -190 l 507 -190 l 507 0 l 317 0 l 317 879 l 507 879 l 507 1069 z "},"]":{"ha":553,"x_min":0,"x_max":0,"o":"m 474 1069 l 47 1069 l 47 879 l 238 879 l 238 0 l 47 0 l 47 -190 l 474 -190 z "},"(":{"ha":474,"x_min":0,"x_max":0,"o":"m 256 1069 b 79 440 168 929 79 700 b 256 -190 79 189 168 -50 l 450 -190 b 315 440 376 -22 315 189 b 450 1069 315 697 376 901 z "},")":{"ha":474,"x_min":0,"x_max":0,"o":"m 218 1069 l 24 1069 b 158 440 97 901 158 697 b 24 -190 158 189 97 -22 l 218 -190 b 394 440 306 -50 394 189 b 218 1069 394 700 306 929 z "},"—":{"ha":1389,"x_min":0,"x_max":0,"o":"m 139 446 l 139 256 l 1250 256 l 1250 446 z "},"–":{"ha":694,"x_min":0,"x_max":0,"o":"m 0 446 l 0 256 l 694 256 l 694 446 z "},"-":{"ha":465,"x_min":0,"x_max":0,"o":"m 44 446 l 44 256 l 422 256 l 422 446 z "},"«":{"ha":563,"x_min":0,"x_max":0,"o":"m 42 246 l 256 46 l 256 254 l 147 349 l 147 351 l 256 446 l 256 654 l 42 454 z m 307 246 l 521 46 l 521 254 l 413 349 l 413 351 l 521 446 l 521 654 l 307 454 z "},"»":{"ha":563,"x_min":0,"x_max":0,"o":"m 256 246 l 256 454 l 42 654 l 42 446 l 150 351 l 150 349 l 42 254 l 42 46 z m 521 246 l 521 454 l 307 654 l 307 446 l 415 351 l 415 349 l 307 254 l 307 46 z "},"‹":{"ha":368,"x_min":0,"x_max":0,"o":"m 61 246 l 297 46 l 297 254 l 179 349 l 179 351 l 297 446 l 297 654 l 61 454 z "},"›":{"ha":368,"x_min":0,"x_max":0,"o":"m 307 246 l 307 454 l 71 654 l 71 446 l 189 351 l 189 349 l 71 254 l 71 46 z "},"„":{"ha":647,"x_min":0,"x_max":0,"o":"m 176 -12 b 58 -135 176 -69 128 -125 l 58 -232 b 294 57 206 -212 294 -104 b 168 224 294 160 253 224 b 44 106 99 224 44 181 b 176 -12 44 31 99 -12 z m 482 -12 b 364 -135 482 -69 433 -125 l 364 -232 b 600 57 511 -212 600 -104 b 474 224 600 160 558 224 b 350 106 404 224 350 181 b 482 -12 350 31 404 -12 z "},"“":{"ha":647,"x_min":0,"x_max":0,"o":"m 165 778 b 283 900 165 835 214 890 l 283 997 b 47 708 136 978 47 869 b 174 542 47 606 89 542 b 297 660 243 542 297 585 b 165 778 297 735 243 778 z m 471 778 b 589 900 471 835 519 890 l 589 997 b 353 708 442 978 353 869 b 479 542 353 606 394 542 b 603 660 549 542 603 585 b 471 778 603 735 549 778 z "},"”":{"ha":647,"x_min":0,"x_max":0,"o":"m 176 769 b 58 647 176 713 128 657 l 58 550 b 294 839 206 569 294 678 b 168 1006 294 942 253 1006 b 44 888 99 1006 44 963 b 176 769 44 813 99 769 z m 482 769 b 364 647 482 713 433 657 l 364 550 b 600 839 511 569 600 678 b 474 1006 600 942 558 1006 b 350 888 404 1006 350 963 b 482 769 350 813 404 769 z "},"‘":{"ha":349,"x_min":0,"x_max":0,"o":"m 165 778 b 283 900 165 835 214 890 l 283 997 b 47 708 136 978 47 869 b 174 542 47 606 89 542 b 297 660 243 542 297 585 b 165 778 297 735 243 778 z "},"’":{"ha":342,"x_min":0,"x_max":0,"o":"m 176 769 b 58 647 176 713 128 657 l 58 550 b 294 839 206 569 294 678 b 168 1006 294 942 253 1006 b 44 888 99 1006 44 963 b 176 769 44 813 99 769 z "},"‚":{"ha":342,"x_min":0,"x_max":0,"o":"m 176 -12 b 58 -135 176 -69 128 -125 l 58 -232 b 294 57 206 -212 294 -104 b 168 224 294 160 253 224 b 44 106 99 224 44 181 b 176 -12 44 31 99 -12 z "}," ":{"ha":236,"x_min":0,"x_max":0,"o":""},"¢":{"ha":756,"x_min":0,"x_max":0,"o":"m 428 149 l 428 561 b 514 446 486 546 508 493 l 732 446 b 428 732 715 599 608 715 l 428 825 l 344 825 l 344 732 b 22 356 147 714 22 563 b 344 -19 22 149 146 -1 l 344 -149 l 428 -149 l 428 -21 b 732 268 610 -6 722 111 l 514 268 b 428 149 508 215 486 165 z m 244 356 b 344 560 244 467 281 539 l 344 151 b 244 356 279 172 244 244 z "},"¤":{"ha":711,"x_min":0,"x_max":0,"o":"m 639 485 b 610 621 639 535 629 581 l 692 703 l 574 821 l 492 739 b 357 768 453 758 407 768 b 221 738 306 768 260 757 l 138 821 l 19 703 l 103 619 b 74 485 85 579 74 535 b 103 350 74 435 85 390 l 19 267 l 138 149 l 221 232 b 357 201 260 213 306 201 b 492 231 407 201 451 213 l 574 149 l 692 267 l 608 350 b 639 485 628 389 639 435 z m 357 326 b 240 485 272 326 240 396 b 357 643 240 574 272 643 b 472 485 440 643 472 574 b 357 326 472 396 440 326 z "},"$":{"ha":868,"x_min":0,"x_max":0,"o":"m 826 264 b 474 588 826 474 658 536 l 474 775 b 576 664 528 758 568 719 l 813 664 b 474 971 806 835 672 951 l 474 1056 l 390 1056 l 390 974 b 50 686 189 965 50 856 b 350 393 50 503 179 443 b 390 382 364 389 378 385 l 390 174 b 258 313 322 186 258 222 l 22 313 b 390 -19 22 110 168 -3 l 390 -143 l 474 -143 l 474 -22 b 826 264 696 -15 826 106 z m 286 704 b 390 782 286 754 328 778 l 390 611 b 286 704 318 635 286 657 z m 474 168 l 474 357 b 590 254 546 333 590 307 b 474 168 590 200 547 172 z "},"€":{"ha":953,"x_min":0,"x_max":0,"o":"m 521 168 b 350 346 418 168 369 235 l 569 346 l 569 429 l 343 429 b 342 476 342 444 342 460 l 342 510 l 569 510 l 569 593 l 349 593 b 521 783 365 711 414 783 b 675 603 631 783 668 711 l 911 603 b 526 974 901 819 783 974 b 113 593 258 974 142 810 l 42 593 l 42 510 l 106 510 l 106 476 b 107 429 106 461 106 444 l 42 429 l 42 346 l 115 346 b 526 -22 147 136 264 -22 b 911 351 785 -22 903 132 l 675 351 b 521 168 669 240 632 168 z "},"£":{"ha":814,"x_min":0,"x_max":0,"o":"m 561 168 b 388 221 486 168 471 221 b 286 193 351 221 318 208 l 285 196 b 394 376 353 244 394 288 b 393 401 394 385 394 393 l 546 401 l 546 526 l 339 526 b 289 668 314 569 289 614 b 419 783 289 732 322 783 b 560 617 515 783 560 724 l 796 617 b 415 974 796 829 686 974 b 53 692 129 974 53 819 b 106 526 53 622 79 572 l 39 526 l 39 401 l 157 401 b 158 383 158 396 158 389 b 32 171 158 300 107 219 l 144 0 b 321 65 217 46 263 65 b 574 -22 414 65 433 -22 b 789 64 669 -22 718 10 l 707 232 b 561 168 671 203 631 168 z "},"¥":{"ha":897,"x_min":0,"x_max":0,"o":"m 890 953 l 626 953 l 447 576 l 444 576 l 265 953 l 1 953 l 296 425 l 99 425 l 99 342 l 328 342 l 328 261 l 99 261 l 99 178 l 328 178 l 328 0 l 564 0 l 564 178 l 793 178 l 793 261 l 564 261 l 564 342 l 793 342 l 793 425 l 596 425 z "},"+":{"ha":786,"x_min":0,"x_max":0,"o":"m 297 361 l 297 110 l 489 110 l 489 361 l 731 361 l 731 553 l 489 553 l 489 804 l 297 804 l 297 553 l 56 553 l 56 361 z "},"−":{"ha":786,"x_min":0,"x_max":0,"o":"m 56 549 l 56 358 l 731 358 l 731 549 z "},"×":{"ha":786,"x_min":0,"x_max":0,"o":"m 724 656 l 589 790 l 389 590 l 189 790 l 54 656 l 254 457 l 54 257 l 189 122 l 389 322 l 589 122 l 724 257 l 524 457 z "},"÷":{"ha":786,"x_min":0,"x_max":0,"o":"m 393 626 b 504 728 458 626 504 663 b 393 829 504 792 458 829 b 282 728 326 829 282 792 b 393 626 282 663 326 626 z m 56 358 l 731 358 l 731 549 l 56 549 z m 393 78 b 504 179 458 78 504 114 b 393 281 504 243 458 281 b 282 179 326 281 282 243 b 393 78 282 114 326 78 z "},"=":{"ha":782,"x_min":0,"x_max":0,"o":"m 71 672 l 71 482 l 721 482 l 721 672 z m 71 378 l 71 188 l 721 188 l 721 378 z "},"≠":{"ha":782,"x_min":0,"x_max":0,"o":"m 721 482 l 721 672 l 581 672 l 632 782 l 493 782 l 442 672 l 71 672 l 71 482 l 351 482 l 301 378 l 71 378 l 71 188 l 211 188 l 161 81 l 300 81 l 350 188 l 721 188 l 721 378 l 440 378 l 490 482 z "},">":{"ha":697,"x_min":0,"x_max":0,"o":"m 65 86 l 638 325 l 638 533 l 65 772 l 65 582 l 450 431 l 450 428 l 65 276 z "},"<":{"ha":721,"x_min":0,"x_max":0,"o":"m 632 86 l 632 276 l 247 428 l 247 431 l 632 582 l 632 772 l 60 533 l 60 325 z "},"≥":{"ha":697,"x_min":0,"x_max":0,"o":"m 65 181 l 638 372 l 638 581 l 65 772 l 65 582 l 450 478 l 450 475 l 65 371 z m 65 157 l 65 -10 l 638 -10 l 638 157 z "},"≤":{"ha":721,"x_min":0,"x_max":0,"o":"m 632 181 l 632 371 l 247 475 l 247 478 l 632 582 l 632 772 l 60 581 l 60 372 z m 632 157 l 60 157 l 60 -10 l 632 -10 z "},"±":{"ha":786,"x_min":0,"x_max":0,"o":"m 56 424 l 297 424 l 297 233 l 489 233 l 489 424 l 731 424 l 731 614 l 489 614 l 489 804 l 297 804 l 297 614 l 56 614 z m 56 167 l 56 0 l 731 0 l 731 167 z "},"≈":{"ha":758,"x_min":0,"x_max":0,"o":"m 557 454 b 722 697 669 454 722 533 l 583 697 b 526 635 583 667 572 635 b 213 697 463 635 307 697 b 47 454 100 697 47 618 l 186 454 b 243 517 186 485 197 517 b 557 454 307 517 463 454 z m 557 156 b 722 399 669 156 722 235 l 583 399 b 526 336 583 368 572 336 b 213 399 463 336 307 399 b 47 156 100 399 47 319 l 186 156 b 243 218 186 186 197 218 b 557 156 307 218 463 156 z "},"~":{"ha":615,"x_min":0,"x_max":0,"o":"m 33 332 l 172 332 b 229 394 172 363 183 394 b 426 332 293 394 332 332 b 592 575 539 332 592 411 l 453 575 b 396 513 453 544 442 513 b 199 575 332 513 293 575 b 33 332 86 575 33 496 z "},"¬":{"ha":728,"x_min":0,"x_max":0,"o":"m 429 407 l 429 186 l 651 186 l 651 597 l 56 597 l 56 407 z "},"∅":{"ha":1107,"x_min":0,"x_max":0,"o":"m 950 807 l 1039 896 l 969 965 l 879 875 b 554 982 792 943 679 982 b 42 479 268 982 42 776 b 157 153 42 350 85 238 l 68 64 l 138 -6 l 228 85 b 554 -22 317 17 429 -22 b 1065 479 840 -22 1065 182 b 950 807 1065 610 1022 721 z m 139 479 b 554 885 139 721 324 885 b 808 804 650 885 739 856 l 226 222 b 139 479 172 290 139 378 z m 554 75 b 299 156 457 75 368 104 l 881 738 b 968 479 935 669 968 581 b 554 75 968 239 783 75 z "},"∞":{"ha":1007,"x_min":0,"x_max":0,"o":"m 31 424 b 268 165 31 249 147 165 b 503 300 371 165 447 233 l 506 300 b 739 165 561 233 636 165 b 976 424 860 165 976 249 b 739 682 976 601 860 682 b 506 564 636 682 561 631 l 503 564 b 268 682 447 631 371 682 b 31 424 147 682 31 601 z m 278 318 b 183 424 211 318 183 371 b 278 529 183 476 211 529 b 428 424 344 529 386 476 b 278 318 386 371 344 318 z m 729 318 b 579 424 663 318 621 371 b 729 529 621 476 663 529 b 824 424 796 529 824 476 b 729 318 824 371 796 318 z "},"∫":{"ha":508,"x_min":0,"x_max":0,"o":"m 374 0 l 374 738 b 518 849 374 849 424 849 l 518 1015 b 360 1029 478 1024 422 1029 b 138 783 197 1029 138 943 l 138 46 b -7 -65 138 -65 88 -65 l -7 -232 b 151 -246 33 -240 89 -246 b 374 0 314 -246 374 -160 z "},"∏":{"ha":999,"x_min":0,"x_max":0,"o":"m 74 993 l 74 -139 l 310 -139 l 310 803 l 689 803 l 689 -139 l 925 -139 l 925 993 z "},"∑":{"ha":849,"x_min":0,"x_max":0,"o":"m 44 56 l 44 -139 l 808 -139 l 808 51 l 311 51 l 311 54 l 631 394 l 631 492 l 321 800 l 321 803 l 794 803 l 794 993 l 44 993 l 44 800 l 394 440 l 394 438 z "},"√":{"ha":906,"x_min":0,"x_max":0,"o":"m 19 506 l 19 315 l 126 315 l 303 -139 l 525 -139 l 896 993 l 660 993 l 415 142 l 413 142 l 279 506 z "},"∂":{"ha":806,"x_min":0,"x_max":0,"o":"m 536 567 b 335 654 499 615 444 654 b 28 301 164 654 28 485 b 374 -22 28 103 164 -22 b 772 439 669 -22 772 217 b 222 993 772 744 614 993 l 222 803 b 536 569 404 803 506 707 z m 379 154 b 250 303 290 154 250 224 b 407 478 250 394 304 478 b 536 331 497 478 536 408 b 379 154 536 238 483 154 z "},"%":{"ha":1206,"x_min":0,"x_max":0,"o":"m 283 425 b 538 703 458 425 538 553 b 283 982 538 854 458 982 b 28 703 110 982 28 854 b 283 425 28 553 110 425 z m 925 960 l 786 960 l 282 0 l 421 0 z m 283 550 b 208 703 226 550 208 597 b 283 857 208 808 226 857 b 357 703 340 857 357 808 b 283 550 357 597 340 550 z m 925 -22 b 1179 256 1100 -22 1179 106 b 925 535 1179 407 1100 535 b 669 256 751 535 669 407 b 925 -22 669 106 751 -22 z m 925 103 b 850 256 868 103 850 150 b 925 410 850 361 868 410 b 999 256 982 410 999 361 b 925 103 999 150 982 103 z "},"‰":{"ha":1771,"x_min":0,"x_max":0,"o":"m 283 425 b 538 703 458 425 538 553 b 283 982 538 854 458 982 b 28 703 110 982 28 854 b 283 425 28 553 110 425 z m 925 960 l 786 960 l 282 0 l 421 0 z m 283 550 b 208 703 226 550 208 597 b 283 857 208 808 226 857 b 357 703 340 857 357 808 b 283 550 357 597 340 550 z m 925 -22 b 1179 256 1100 -22 1179 106 b 925 535 1179 407 1100 535 b 669 256 751 535 669 407 b 925 -22 669 106 751 -22 z m 1490 -22 b 1744 256 1665 -22 1744 106 b 1490 535 1744 407 1665 535 b 1235 256 1317 535 1235 407 b 1490 -22 1235 106 1317 -22 z m 925 103 b 850 256 868 103 850 150 b 925 410 850 361 868 410 b 999 256 982 410 999 361 b 925 103 999 150 982 103 z m 1490 103 b 1415 256 1433 103 1415 150 b 1490 410 1415 361 1433 410 b 1564 256 1547 410 1564 361 b 1490 103 1564 150 1547 103 z "},"↑":{"ha":944,"x_min":0,"x_max":0,"o":"m 903 561 l 472 960 l 42 561 l 151 454 l 389 676 l 389 0 l 556 0 l 556 676 l 793 454 z "},"↗":{"ha":844,"x_min":0,"x_max":0,"o":"m 803 249 l 779 835 l 193 857 l 196 704 l 521 693 l 42 215 l 160 97 l 638 575 l 649 250 z "},"→":{"ha":1043,"x_min":0,"x_max":0,"o":"m 603 14 l 1001 444 l 603 875 l 496 765 l 718 528 l 42 528 l 42 361 l 718 361 l 496 124 z "},"↘":{"ha":811,"x_min":0,"x_max":0,"o":"m 803 646 l 649 644 l 638 319 l 160 797 l 42 679 l 521 201 l 196 190 l 193 38 l 779 60 z "},"↓":{"ha":944,"x_min":0,"x_max":0,"o":"m 903 343 l 793 450 l 556 228 l 556 904 l 389 904 l 389 228 l 151 450 l 42 343 l 472 -56 z "},"↙":{"ha":811,"x_min":0,"x_max":0,"o":"m 8 646 l 32 60 l 618 38 l 615 190 l 290 201 l 769 679 l 651 797 l 174 319 l 163 644 z "},"←":{"ha":1043,"x_min":0,"x_max":0,"o":"m 440 14 l 547 124 l 325 361 l 1001 361 l 1001 528 l 325 528 l 547 765 l 440 875 l 42 444 z "},"↖":{"ha":811,"x_min":0,"x_max":0,"o":"m 8 249 l 163 250 l 174 575 l 651 97 l 769 215 l 290 693 l 615 704 l 618 857 l 32 835 z "},"↔":{"ha":1583,"x_min":0,"x_max":0,"o":"m 1143 875 l 1038 765 l 1258 528 l 325 528 l 547 765 l 440 875 l 42 443 l 440 13 l 547 124 l 325 361 l 1260 361 l 1038 124 l 1144 14 l 1542 444 z "},"↕":{"ha":944,"x_min":0,"x_max":0,"o":"m 556 38 l 556 808 l 793 586 l 903 693 l 472 1092 l 42 693 l 151 586 l 389 808 l 389 38 l 151 260 l 42 153 l 472 -246 l 903 153 l 793 260 z "},"◊":{"ha":828,"x_min":0,"x_max":0,"o":"m 22 496 l 303 0 l 526 0 l 806 496 l 525 993 l 301 993 z m 417 190 l 414 190 l 258 496 l 411 803 l 414 803 l 569 496 z "},"@":{"ha":1263,"x_min":0,"x_max":0,"o":"m 939 110 b 1221 449 1103 110 1221 199 b 649 993 1221 736 1026 993 b 49 421 297 993 49 736 b 635 -150 49 78 269 -150 b 928 -90 738 -150 835 -140 l 883 19 b 635 -25 799 -14 722 -25 b 201 421 361 -25 201 147 b 649 868 201 667 389 868 b 1082 444 935 868 1082 667 b 953 235 1082 300 1033 235 b 878 360 900 235 865 265 l 922 708 l 732 708 l 722 625 l 719 625 b 569 718 694 676 658 718 b 322 410 436 718 322 601 b 542 115 322 218 422 115 b 706 222 631 115 678 157 l 708 222 b 939 110 746 151 847 110 z m 590 268 b 510 396 528 268 510 326 b 618 565 510 507 556 565 b 704 438 681 565 704 521 b 590 268 704 340 681 268 z "},"&":{"ha":968,"x_min":0,"x_max":0,"o":"m 965 0 l 792 203 b 903 497 854 294 892 401 l 708 497 b 661 356 700 451 683 403 l 525 513 b 733 763 658 582 735 649 b 435 1015 732 889 617 1017 b 136 763 242 1014 136 889 b 253 524 136 665 185 604 b 31 244 140 467 31 399 b 374 -22 31 93 144 -22 b 642 56 479 -22 568 7 l 688 0 z m 435 825 b 525 749 499 825 525 789 b 429 621 525 701 492 663 b 344 749 379 671 344 704 b 435 825 344 789 374 825 z m 401 168 b 267 289 310 168 267 224 b 343 417 267 328 279 371 l 522 199 b 401 168 488 179 447 168 z "},"¶":{"ha":838,"x_min":0,"x_max":0,"o":"m 386 465 l 386 0 l 525 0 l 525 868 l 624 868 l 624 0 l 763 0 l 763 993 l 328 993 b 38 725 140 993 38 892 b 328 465 38 558 140 465 z "},"§":{"ha":868,"x_min":0,"x_max":0,"o":"m 833 372 b 499 651 833 528 679 569 b 331 796 410 692 331 728 b 414 863 331 840 363 863 b 528 764 494 863 521 832 l 750 764 b 419 1015 743 900 651 1015 b 108 774 219 1015 108 917 b 181 604 108 697 138 644 b 40 397 90 565 40 492 b 375 118 40 242 194 200 b 543 -26 464 78 543 42 b 460 -93 543 -71 511 -93 b 346 6 379 -93 353 -62 l 124 6 b 454 -246 131 -131 222 -246 b 765 -4 654 -246 765 -147 b 693 165 765 72 736 125 b 833 372 783 204 833 278 z m 497 281 b 263 451 357 350 263 379 b 335 510 263 485 288 506 l 376 489 b 611 318 517 419 611 390 b 539 260 611 285 586 264 z "},"©":{"ha":1135,"x_min":0,"x_max":0,"o":"m 568 -22 b 1079 496 882 -22 1079 199 b 568 1015 1079 793 882 1015 b 56 496 254 1015 56 793 b 568 -22 56 199 254 -22 z m 568 47 b 139 496 296 47 139 242 b 568 946 139 751 296 946 b 996 496 839 946 996 751 b 568 47 996 242 839 47 z m 668 571 l 847 571 b 565 808 833 707 736 808 b 274 496 385 808 274 678 b 576 185 274 313 390 185 b 847 424 744 185 839 286 l 668 424 b 569 322 663 371 643 322 b 457 496 493 322 457 386 b 569 671 457 607 493 671 b 668 571 643 671 663 618 z "},"®":{"ha":738,"x_min":0,"x_max":0,"o":"m 369 343 b 701 679 556 343 701 486 b 369 1015 701 872 556 1015 b 36 679 183 1015 36 872 b 369 343 36 486 183 343 z m 369 413 b 119 681 215 413 119 518 b 369 947 119 842 215 947 b 618 681 524 947 618 842 b 369 413 618 518 524 413 z m 224 500 l 314 500 l 314 626 l 371 626 b 433 500 449 626 415 515 l 528 500 l 528 506 b 450 667 507 511 540 651 l 450 668 b 522 757 494 678 522 708 b 394 861 522 825 474 861 l 224 861 z m 314 788 l 376 788 b 432 743 413 788 432 774 b 376 700 432 714 413 700 l 314 700 z "},"™":{"ha":999,"x_min":0,"x_max":0,"o":"m 151 868 l 151 611 l 276 611 l 276 868 l 385 868 l 385 993 l 43 993 l 43 868 z m 436 993 l 436 611 l 561 611 l 561 854 l 564 854 l 633 611 l 724 611 l 794 854 l 797 854 l 797 611 l 925 611 l 925 993 l 756 993 l 681 792 l 678 792 l 604 993 z "},"°":{"ha":521,"x_min":0,"x_max":0,"o":"m 261 589 b 478 803 394 589 478 689 b 261 1015 478 917 394 1015 b 44 803 126 1015 44 917 b 261 589 44 689 126 589 z m 261 700 b 169 803 218 700 169 729 b 261 904 169 876 218 904 b 353 803 304 904 353 876 b 261 700 353 729 304 700 z "},"|":{"ha":313,"x_min":0,"x_max":0,"o":"m 81 1047 l 81 -192 l 233 -192 l 233 1047 z "},"¦":{"ha":313,"x_min":0,"x_max":0,"o":"m 81 1047 l 81 533 l 233 533 l 233 1047 z m 81 340 l 81 -192 l 233 -192 l 233 340 z "},"†":{"ha":818,"x_min":0,"x_max":0,"o":"m 292 521 l 292 -246 l 528 -246 l 528 521 l 771 521 l 771 711 l 528 711 l 528 993 l 292 993 l 292 711 l 47 711 l 47 521 z "},"‡":{"ha":819,"x_min":0,"x_max":0,"o":"m 292 76 l 292 -246 l 528 -246 l 528 76 l 771 76 l 771 267 l 528 267 l 528 521 l 771 521 l 771 711 l 528 711 l 528 993 l 292 993 l 292 711 l 47 711 l 47 521 l 292 521 l 292 267 l 47 267 l 47 76 z "},"^":{"ha":647,"x_min":0,"x_max":0,"o":"m 240 993 l 8 611 l 217 611 l 322 799 l 324 799 l 431 611 l 639 611 l 407 993 z "},"̈":{"ha":0,"x_min":0,"x_max":0,"o":"m -553 903 b -446 797 -553 846 -515 797 b -340 903 -378 797 -340 846 b -446 1008 -340 960 -378 1008 b -553 903 -514 1008 -553 960 z m -254 903 b -147 797 -254 846 -217 797 b -42 903 -79 797 -42 846 b -147 1008 -42 960 -79 1008 b -254 903 -215 1008 -254 960 z "},"̇":{"ha":0,"x_min":0,"x_max":0,"o":"m -254 903 b -147 797 -254 846 -217 797 b -42 903 -79 797 -42 846 b -147 1008 -42 960 -79 1008 b -254 903 -215 1008 -254 960 z "},"̀":{"ha":0,"x_min":0,"x_max":0,"o":"m -101 1000 l -351 1000 l -208 806 l -42 806 z "},"́":{"ha":0,"x_min":0,"x_max":0,"o":"m -292 1000 l -351 806 l -185 806 l -42 1000 z "},"̋":{"ha":0,"x_min":0,"x_max":0,"o":"m -597 1000 l -657 806 l -490 806 l -347 1000 z m -292 1000 l -351 806 l -185 806 l -42 1000 z "},"̂":{"ha":0,"x_min":0,"x_max":0,"o":"m -556 806 l -362 806 l -300 901 l -297 901 l -235 806 l -42 806 l -190 1000 l -407 1000 z "},"̌":{"ha":0,"x_min":0,"x_max":0,"o":"m -556 1000 l -407 806 l -190 806 l -42 1000 l -235 1000 l -297 904 l -300 904 l -362 1000 z "},"̆":{"ha":0,"x_min":0,"x_max":0,"o":"m -264 797 b -42 1000 -135 797 -47 881 l -169 1000 b -264 933 -174 960 -204 933 b -358 1000 -324 933 -354 960 l -486 1000 b -264 797 -482 876 -390 797 z "},"̊":{"ha":0,"x_min":0,"x_max":0,"o":"m -183 790 b -42 929 -106 790 -42 843 b -183 1068 -42 1014 -106 1068 b -325 929 -260 1068 -325 1014 b -183 790 -325 843 -260 790 z m -183 867 b -240 929 -217 867 -240 889 b -183 992 -240 969 -217 992 b -125 929 -149 992 -125 969 b -183 867 -125 889 -149 867 z "},"̃":{"ha":0,"x_min":0,"x_max":0,"o":"m -503 825 l -387 825 b -342 876 -387 850 -379 876 b -164 825 -289 876 -228 825 b -42 1013 -85 825 -42 876 l -157 1013 b -203 960 -157 986 -165 960 b -381 1013 -256 960 -317 1013 b -503 825 -460 1013 -503 960 z "},"̄":{"ha":0,"x_min":0,"x_max":0,"o":"m -439 972 l -439 833 l -42 833 l -42 972 z "},"̒":{"ha":0,"x_min":0,"x_max":0,"o":"m -144 960 b -53 1026 -144 997 -107 1019 l -53 1090 b -236 914 -181 1078 -236 1006 b -126 790 -236 846 -197 790 b -42 879 -72 790 -42 826 b -144 960 -42 932 -83 974 z "},"̦":{"ha":0,"x_min":0,"x_max":0,"o":"m -133 -235 b -225 -301 -133 -272 -171 -294 l -225 -365 b -42 -189 -97 -353 -42 -281 b -140 -65 -42 -121 -74 -65 b -236 -157 -194 -65 -236 -107 b -133 -235 -236 -207 -194 -249 z "},"̧":{"ha":0,"x_min":0,"x_max":0,"o":"m -136 -14 l -218 -14 l -297 -106 l -274 -139 b -225 -129 -258 -133 -243 -129 b -172 -167 -196 -129 -172 -140 b -233 -207 -172 -196 -208 -207 b -329 -186 -267 -207 -303 -199 l -371 -235 b -215 -275 -332 -258 -281 -275 b -33 -168 -117 -275 -33 -235 b -189 -75 -33 -96 -110 -67 l -189 -72 z "},"̨":{"ha":0,"x_min":0,"x_max":0,"o":"m -154 -246 b -42 -231 -115 -246 -74 -239 l -42 -106 b -99 -115 -61 -111 -81 -115 b -142 -85 -126 -115 -142 -106 b -75 0 -142 -56 -111 -31 l -215 0 b -312 -129 -260 -21 -312 -64 b -154 -246 -312 -204 -258 -246 z "},"̵":{"ha":0,"x_min":0,"x_max":0,"o":"m -42 576 l -664 576 l -664 451 l -42 451 z "},"̶":{"ha":0,"x_min":0,"x_max":0,"o":"m -42 601 l -792 601 l -792 397 l -42 397 z "},"̷":{"ha":0,"x_min":0,"x_max":0,"o":"m -786 42 l -101 728 l -42 669 l -728 -18 z "},"̸":{"ha":0,"x_min":0,"x_max":0,"o":"m -786 42 l -101 728 l -42 669 l -728 -18 z "},"´":{"ha":664,"x_min":0,"x_max":0,"o":"m 297 1000 l 238 806 l 404 806 l 547 1000 z "},"˘":{"ha":690,"x_min":0,"x_max":0,"o":"m 372 797 b 594 1000 501 797 589 881 l 467 1000 b 372 933 463 960 432 933 b 278 1000 313 933 282 960 l 150 1000 b 372 797 154 876 246 797 z "},"ˇ":{"ha":696,"x_min":0,"x_max":0,"o":"m 92 1000 l 240 806 l 457 806 l 606 1000 l 413 1000 l 350 904 l 347 904 l 285 1000 z "},"¸":{"ha":703,"x_min":0,"x_max":0,"o":"m 394 -14 l 313 -14 l 233 -106 l 257 -139 b 306 -129 272 -133 288 -129 b 358 -167 335 -129 358 -140 b 297 -207 358 -196 322 -207 b 201 -186 264 -207 228 -199 l 160 -235 b 315 -275 199 -258 250 -275 b 497 -168 414 -275 497 -235 b 342 -75 497 -96 421 -67 l 342 -72 z "},"ˆ":{"ha":644,"x_min":0,"x_max":0,"o":"m 90 806 l 283 806 l 346 901 l 349 901 l 411 806 l 604 806 l 456 1000 l 239 1000 z "},"¨":{"ha":681,"x_min":0,"x_max":0,"o":"m 85 903 b 192 797 85 846 122 797 b 297 903 260 797 297 846 b 192 1008 297 960 260 1008 b 85 903 124 1008 85 960 z m 383 903 b 490 797 383 846 421 797 b 596 903 558 797 596 846 b 490 1008 596 960 558 1008 b 383 903 422 1008 383 960 z "},"˙":{"ha":682,"x_min":0,"x_max":0,"o":"m 235 903 b 342 797 235 846 272 797 b 447 903 410 797 447 846 b 342 1008 447 960 410 1008 b 235 903 274 1008 235 960 z "},"`":{"ha":860,"x_min":0,"x_max":0,"o":"m 367 1000 l 117 1000 l 260 806 l 426 806 z "},"˝":{"ha":751,"x_min":0,"x_max":0,"o":"m 193 1000 l 133 806 l 300 806 l 443 1000 z m 499 1000 l 439 806 l 606 806 l 749 1000 z "},"¯":{"ha":694,"x_min":0,"x_max":0,"o":"m 153 972 l 153 833 l 550 833 l 550 972 z "},"˛":{"ha":708,"x_min":0,"x_max":0,"o":"m 326 -246 b 439 -231 365 -246 407 -239 l 439 -106 b 382 -115 419 -111 400 -115 b 339 -85 354 -115 339 -106 b 406 0 339 -56 369 -31 l 265 0 b 168 -129 221 -21 168 -64 b 326 -246 168 -204 222 -246 z "},"˚":{"ha":694,"x_min":0,"x_max":0,"o":"m 347 790 b 489 929 425 790 489 843 b 347 1068 489 1014 425 1068 b 206 929 271 1068 206 1014 b 347 790 206 843 271 790 z m 347 867 b 290 929 314 867 290 889 b 347 992 290 969 314 992 b 406 929 382 992 406 969 b 347 867 406 889 382 867 z "},"˜":{"ha":694,"x_min":0,"x_max":0,"o":"m 117 825 l 232 825 b 278 876 232 850 240 876 b 456 825 331 876 392 825 b 578 1013 535 825 578 876 l 463 1013 b 417 960 463 986 454 960 b 239 1013 364 960 303 1013 b 117 825 160 1013 117 960 z "}}}
